<?xml version="1.0" encoding="UTF-8"?><svg id="Layer_1" xmlns="http://www.w3.org/2000/svg" xmlns:xlink="http://www.w3.org/1999/xlink" viewBox="0 0 379.76 491.23"><defs><style>.cls-1{fill:#fff;}.cls-2{fill:#48cc7e;}.cls-3{fill:#9a4c98;}.cls-4{fill:#50b0d6;}.cls-5{clip-path:url(#clippath);}.cls-6{fill:#ef64ad;}.cls-7{fill:#050505;}</style><clipPath id="clippath"><ellipse class="cls-4" cx="195.58" cy="347.18" rx="136.73" ry="127"/></clipPath></defs><g><g><g><path class="cls-6" d="M96.08,21.25c.02-.8,.59-17.9,6.85-19.18,3.1-.63,7.18,2.7,8.9,6.16,2.84,5.7,1.26,15.64,3.43,18.84,.06,.09,.26,.37,.37,.78,.6,2.18-2.04,4.63-3.12,5.71-5.95,5.98-5.59,11.72-8.22,11.64-2.19-.06-3.68-4.06-5.48-8.9-1.3-3.49-2.91-8.3-2.74-15.07Z"/><path class="cls-7" d="M104.37,47.22s-.08,0-.12,0c-3.53-.1-5.19-4.56-7.29-10.2-1.59-4.27-3.04-9.14-2.87-15.82h0c.08-3.25,.88-19.54,8.45-21.08,4.2-.86,9.03,3.09,11.09,7.23,1.68,3.38,1.96,7.82,2.21,11.74,.17,2.72,.37,5.81,1.08,6.87,.11,.17,.45,.66,.65,1.38,.88,3.18-2.03,6.07-3.43,7.46l-.2,.2c-2.87,2.88-4.15,5.74-5.09,7.82-.98,2.17-1.99,4.41-4.48,4.41Zm.04-3.99h0Zm-.66-39.23c-.14,0-.28,.01-.41,.04-3.3,.67-5.08,10.7-5.25,17.27h0c-.18,6.83,1.64,11.7,2.61,14.32,1.01,2.72,2.51,6.74,3.53,7.51,.27-.4,.65-1.25,.97-1.96,1-2.23,2.52-5.61,5.9-9l.21-.21c2.19-2.18,2.51-3.14,2.39-3.56-.02-.08-.06-.13-.09-.18-1.34-1.98-1.54-5.17-1.77-8.88-.22-3.54-.48-7.56-1.8-10.21-1.38-2.76-4.35-5.14-6.3-5.14Zm-7.66,17.26h0Z"/></g><g><path class="cls-6" d="M161.6,21.25c-.02-.8-.59-17.9-6.85-19.18-3.1-.63-7.18,2.7-8.9,6.16-2.84,5.7-1.26,15.64-3.43,18.84-.06,.09-.26,.37-.37,.78-.6,2.18,2.04,4.63,3.12,5.71,5.95,5.98,5.59,11.72,8.22,11.64,2.19-.06,3.68-4.06,5.48-8.9,1.3-3.49,2.91-8.3,2.74-15.07Z"/><path class="cls-7" d="M153.31,47.22c-2.49,0-3.5-2.24-4.48-4.41-.94-2.09-2.23-4.94-5.09-7.82l-.2-.2c-1.4-1.39-4.3-4.28-3.43-7.46,.2-.72,.53-1.21,.64-1.37,.72-1.06,.92-4.15,1.09-6.88,.25-3.92,.53-8.37,2.21-11.74,2.07-4.14,6.9-8.09,11.09-7.23,7.57,1.54,8.37,17.83,8.45,21.08,.17,6.68-1.28,11.55-2.87,15.82-2.1,5.64-3.76,10.1-7.29,10.2-.04,0-.08,0-.12,0Zm.62-43.23c-1.95,0-4.92,2.38-6.3,5.14-1.32,2.65-1.58,6.67-1.8,10.21-.23,3.7-.44,6.9-1.76,8.86-.04,.06-.08,.12-.1,.19-.12,.42,.2,1.38,2.39,3.56l.21,.21c3.38,3.4,4.9,6.77,5.9,9,.32,.72,.71,1.58,.98,1.97,.98-.7,2.5-4.78,3.52-7.52,.97-2.62,2.79-7.49,2.61-14.32h0c-.17-6.57-1.95-16.6-5.25-17.27-.13-.03-.27-.04-.41-.04Z"/></g></g><g><g><path class="cls-6" d="M154.77,189.97c-3.58,2.81-3.92,4.75-2.92,9.6-5.19,5.11-6.46,7.61-7.04,18.5-1.21-3.52-6.02-3.69-7.96-.76,4.9-11.08-10.66-54.86,.81-52.79,4.34,4.01,12.7,10.14,17.53,7.51,4.12,3.55,3.04,8.24-2.51,12.1-.41,1.67,2.09,4.59,2.09,5.84Z"/><path class="cls-7" d="M144.81,220.07c-.84,0-1.61-.53-1.89-1.35-.38-1.1-1.3-1.37-1.81-1.44-1.03-.14-2.04,.32-2.58,1.14-.57,.87-1.71,1.15-2.63,.65-.91-.5-1.29-1.61-.87-2.56,1.9-4.29,.11-15.56-1.47-25.51-2.32-14.59-3.55-23.72,.02-27.21,.8-.78,2.22-1.63,4.44-1.23,.38,.07,.72,.24,1,.5,5.08,4.7,12.02,8.96,15.21,7.22,.73-.4,1.63-.3,2.26,.24,2.79,2.41,3.27,4.96,3.18,6.67-.14,2.79-1.84,5.5-4.91,7.89,.21,.51,.61,1.26,.86,1.72,.62,1.15,1.15,2.15,1.15,3.17,0,.61-.28,1.19-.76,1.57-2.79,2.19-3.1,3.26-2.2,7.62,.14,.66-.07,1.35-.55,1.83-4.81,4.73-5.89,6.73-6.45,17.18-.05,.96-.77,1.74-1.72,1.87-.09,.01-.19,.02-.28,.02Zm-4.05-6.81c.28,0,.56,.02,.85,.05,.53,.07,1.04,.19,1.52,.38,.74-7.58,2.35-10.51,6.56-14.78-.73-4.09-.37-6.71,2.75-9.57-.11-.22-.24-.45-.34-.64-.83-1.56-1.78-3.32-1.35-5.04,.12-.47,.4-.88,.8-1.16,2.58-1.79,4.05-3.75,4.14-5.51,.05-.9-.28-1.77-.98-2.61-6.25,1.76-14.65-5.02-17.89-7.92-.27,.02-.38,.12-.44,.19-2.28,2.23-.3,14.65,1.14,23.73,1.39,8.73,2.71,17.09,2.24,22.97,.33-.05,.67-.08,1.02-.08Zm14.01-23.28h0Z"/></g><g><path class="cls-6" d="M245.72,195.4c-.75,12.06-1.24,13.57-1.43,21.77-3.06-2.2-4.75-2.88-9.08-.11-.32-11.06-1.14-18.89-8.67-26.26-2.13-2.08-3.56-3.71-4.19-4.31-2.48-2.36-5.91-6.26-10-13,1.33-.67,12.25-2.87,16.38-3.3,1.99,10.22,18.64,14.06,17,25.2Z"/><path class="cls-7" d="M244.28,219.17c-.41,0-.82-.13-1.17-.38-2.43-1.75-3.24-2.34-6.84-.05-.61,.39-1.38,.42-2.01,.08-.64-.34-1.04-.99-1.06-1.71-.3-10.56-1.03-18-8.07-24.88-1.34-1.31-2.4-2.44-3.18-3.26-.44-.46-.77-.82-.99-1.03-3.44-3.27-6.92-7.78-10.33-13.41-.29-.48-.37-1.05-.21-1.59,.16-.54,.53-.98,1.03-1.23,1.77-.88,13.27-3.1,17.06-3.5,1.03-.11,1.98,.59,2.17,1.61,.76,3.93,4.27,6.91,7.97,10.07,4.72,4.02,10.06,8.56,9.05,15.71-.32,5.08-.59,8.31-.81,10.92-.31,3.63-.51,6.03-.62,10.7-.02,.74-.44,1.41-1.11,1.74-.28,.14-.59,.21-.89,.21Zm-28.84-44.48c2.77,4.29,5.55,7.77,8.28,10.36,.26,.24,.64,.65,1.14,1.18,.75,.8,1.78,1.89,3.06,3.14,7.31,7.15,8.72,14.79,9.16,24.44,2.03-.8,3.65-.74,5.31-.07,.12-2.84,.3-4.93,.52-7.57,.22-2.59,.49-5.82,.81-10.91,0-.06,0-.11,.02-.17,.74-5.01-3.16-8.33-7.68-12.17-3.58-3.05-7.28-6.2-8.81-10.53-3.52,.51-8.79,1.57-11.81,2.28Z"/></g><g><path class="cls-6" d="M266.58,199.15c-4.58,7.59-5.36,12.43-6.74,22.29-3.16-2.33-4.87-3.02-9.36-.1-.13-7.53,.25-16.77,.25-16.77,2.75-11.28-15.39-22.9-20.86-31.71-1.03-5.04-4.68,0-9.18,0-11.32,5.29-37.44-8.64-33.38,9.59-3.69,2.77-5.94,3.74-6.67,9.18-4.45,.92-10.46,.55-9.18,8.34-1.74,6.28-9.3,11.25-7.72,20-2.71-2.15-4.66-3.2-8.53-1.01-1.62-11.23-.92-20.14,.14-26.47,1.34-8.07,3.82-15.3,.23-18.77-1.98-1.91-5.08-1.98-7.48-1.7-3.76-.84-6.68-5.42-10.43-7.51-4.71-1.67-6.41,3.1-7.93-3.76-2.72-1.39-6.46,.66-7.51-5.01-6.07-1.19-6.75-2.51-5.84-9.6-2.49-3.59-4.11-5.77-2.92-10.43-2.91-2.52-3.73-9.64-3.34-13.35-1.92-5.2-4.97-5.88-1.67-10.85-.12-3.45-2.39-9.41-1.67-13.77,2.05-9.73-1.03-26.56-5.43-35.46,2.08-6.25,2.91-4.12,1.67-10.85,3.12-6.07,4.03-4.32,1.67-12.93,6.09-14.21,27-20.85,36.3-14.19,6.5,4.84,4.04,7.93,7.09,11.27,6.03,2.15,4.32,11.68,7.51,15.85,.26,1.86-2.42,15.45-2.5,17.1,.42,2.92,2.5,3.76,1.67,7.51-5.77,7.69,1.15,11.54-.83,20.03-1.67,5.01,1.67,8.34,2.08,9.6,.42,1.25-1.25,5.01,1.67,7.09,5.42,7.5,5.76-.08,13.56,2.29,4.22-.02,8.53-3.42,12.85-1.97,3.48-2.89,3.37-2.88,8.07-.85,3.01,.62,12.08-2.43,14.54-1.77,1.72,1.23,2.44,4.56,5.24,3.78,3.71-.09,11.42-3.92,13.06,1.18,2.98,.72,9.26-.62,10.9,2.97,7.92,6.05,8.61-10.82,16.06,1.88,2.7,1.35,4.77-.13,5.84,1.25-2.67,13.19,11.59,1.33,2.09,14.19-.08,12.39-7.46-.06-2.08,19.61,2.9,7.67,1.39,30.28,7.51,35.46-1.38,4.25-.61,5.09,1.25,8.34Z"/><path class="cls-7" d="M259.84,223.44c-.42,0-.84-.13-1.19-.39-2.57-1.89-3.35-2.46-7.09-.03-.61,.4-1.39,.43-2.03,.09-.64-.34-1.05-1.01-1.06-1.73-.12-7.5,.24-16.79,.25-16.88,0-.13,.02-.27,.05-.39,1.59-6.53-5.71-13.93-12.15-20.46-3.38-3.43-6.58-6.67-8.47-9.72-.12-.2-.21-.42-.26-.65-.05-.27-.11-.45-.16-.58-.42,.12-1.09,.43-1.57,.65-1.39,.63-3.09,1.41-5.04,1.52-4.77,2.03-11.24,1.26-17.49,.53-5.86-.69-11.92-1.41-13.91,.8-.94,1.05-1.1,3.01-.47,5.85,.17,.77-.12,1.56-.75,2.04-.44,.33-.86,.64-1.27,.93-2.81,2.04-4.09,2.97-4.62,6.92-.11,.84-.75,1.52-1.58,1.69-.66,.14-1.36,.25-2.06,.36-2.11,.33-4.29,.68-5.15,1.86-.56,.77-.69,2.06-.4,3.84,.05,.29,.03,.58-.05,.86-.72,2.6-2.27,4.93-3.77,7.18-2.46,3.69-4.78,7.17-3.91,11.93,.15,.82-.23,1.64-.94,2.07-.71,.43-1.62,.37-2.27-.15-2.45-1.94-3.48-2.43-6.31-.84-.57,.33-1.27,.34-1.86,.05-.59-.29-1-.86-1.1-1.51-1.34-9.33-1.29-18.44,.14-27.09,.27-1.61,.58-3.18,.88-4.69,1.09-5.51,2.04-10.28-.07-12.31-1.12-1.08-3.09-1.47-5.86-1.15-.22,.02-.45,.01-.66-.03-2.7-.6-4.86-2.59-6.94-4.5-1.26-1.16-2.56-2.36-3.88-3.12-1.17-.37-2.05-.18-2.97,.02-3.18,.69-4.79-.38-5.82-4.08-.37-.08-.79-.12-1.23-.17-2.02-.22-4.98-.55-6.25-4.67-6.13-1.47-7.04-4.09-6.27-10.77-2.18-3.14-3.86-5.79-3.02-10.34-2.9-3.56-3.42-10.37-3.19-13.67-.48-1.19-1.03-2.13-1.52-2.96-1.6-2.74-2.49-4.86-.16-8.69-.11-1.07-.4-2.43-.7-3.85-.66-3.11-1.41-6.65-.9-9.72,2-9.5-1.12-25.89-5.25-34.25-.23-.47-.27-1.02-.1-1.52,.65-1.94,1.18-3.12,1.57-3.98,.75-1.65,.79-1.75,.03-5.88-.08-.44-.01-.88,.19-1.28,.67-1.31,1.24-2.26,1.7-3.02q1.46-2.45-.18-8.46c-.12-.44-.09-.9,.09-1.32,3.32-7.75,11.24-14.21,20.65-16.83,7.37-2.06,14.17-1.4,18.65,1.81,4.54,3.38,5.31,6.19,5.94,8.44,.31,1.11,.54,1.94,1.19,2.78,4.27,1.86,5.23,6.64,6.01,10.51,.47,2.33,.91,4.54,1.88,5.81,.21,.27,.34,.6,.39,.94,.18,1.27-.34,4.61-1.63,12.12-.36,2.08-.76,4.41-.84,5.18,.13,.7,.41,1.26,.73,1.91,.69,1.39,1.55,3.11,.88,6.12-.06,.28-.18,.54-.35,.77-2.72,3.63-2.06,6.02-1.15,9.32,.76,2.74,1.62,5.85,.66,9.96-.01,.06-.03,.12-.05,.18-1.02,3.05,.32,5.24,1.3,6.83,.35,.57,.62,1.01,.78,1.5,.26,.77,.18,1.6,.09,2.47-.17,1.71-.2,2.88,.84,3.62,.18,.13,.33,.28,.46,.46,2.15,2.97,2.54,2.8,4.22,2.1,1.64-.69,4.11-1.73,7.98-.64,1.34-.06,2.79-.54,4.33-1.05,2.36-.78,5-1.65,7.78-1.11,3.45-2.77,4.49-2.59,9.12-.59,1.26,.15,4.36-.49,6.65-.95,3.83-.78,6.25-1.24,7.84-.81,.23,.06,.45,.17,.65,.3,.84,.6,1.44,1.43,1.96,2.16,1.06,1.47,1.21,1.42,1.58,1.32,.16-.04,.33-.07,.49-.07,.81-.02,2.03-.3,3.31-.6,3.42-.79,8.95-2.07,11.19,1.97,.59,.05,1.28,.07,2,.09,3.07,.08,7.23,.2,9.06,3.35,1.89,1.31,2.73,.69,4.69-1.13,1.35-1.25,3.04-2.81,5.35-2.48,2,.29,3.82,1.91,5.85,5.23,.72,.24,1.39,.22,2.1,.2,1.17-.03,2.79-.08,3.94,1.41,.36,.46,.49,1.05,.38,1.62-.59,2.91-.17,3.91,.04,4.21,.27,.38,.89,.49,1.81,.62,1.07,.15,2.7,.38,3.36,1.95,.68,1.62-.07,3.52-3.1,7.67-.15,5.35-1.73,6.73-3.48,7.76-.15,.09-.38,.22-.43,.28-.17,.27-.56,1.83,1.74,10.29,1.19,3.22,1.66,8.5,2.16,14.09,.71,7.94,1.6,17.81,4.73,20.46,.62,.52,.86,1.37,.61,2.14-1.01,3.11-.78,3.51,.71,6.09l.37,.64c.36,.63,.35,1.41-.02,2.03-4.33,7.18-5.07,11.53-6.47,21.53-.1,.7-.55,1.29-1.2,1.57-.25,.1-.51,.16-.78,.16Zm-4.5-6.03c1.02,0,1.98,.25,2.96,.72,1.14-7.73,2.24-12.52,5.97-18.98-1.5-2.62-2.15-4.21-1.19-7.78-3.56-4.27-4.38-13.37-5.17-22.19-.48-5.36-.93-10.43-1.95-13.12-.02-.06-.04-.12-.06-.18-3.02-11.05-2.55-13.37,.5-15.16,.7-.41,1.49-.88,1.52-4.99,0-.42,.14-.84,.39-1.18,1.46-1.97,2.19-3.15,2.56-3.84-1.22-.18-3.09-.53-4.3-2.24-.94-1.33-1.26-3.12-.98-5.55h0c-1.07,.03-2.69,.08-4.49-.82-.35-.17-.63-.44-.83-.78-2.07-3.53-3.14-3.85-3.33-3.87-.4-.04-1.32,.77-2.04,1.45-1.84,1.71-5.26,4.89-10.18,1.12-.26-.2-.47-.46-.6-.76-.63-1.38-3.38-1.46-5.79-1.52-1.37-.04-2.67-.07-3.76-.34-.67-.16-1.22-.67-1.43-1.33-.54-1.68-2.59-1.51-6.99-.5-1.39,.32-2.72,.63-3.88,.69-3.05,.72-4.68-1.54-5.66-2.9-.25-.35-.51-.71-.75-.97-.02,0-.04,0-.05,0-1.16,0-3.79,.54-5.6,.91-3.34,.68-6.49,1.33-8.42,.93-.13-.03-.26-.07-.39-.12l-.18-.08c-1.6-.69-2.86-1.24-3.31-1.19-.37,.04-1.25,.78-2.38,1.71l-.13,.11c-.53,.44-1.26,.58-1.92,.36-1.93-.65-4.09,.06-6.37,.82-1.86,.61-3.79,1.25-5.83,1.26-.19-.02-.4-.03-.59-.09-2.68-.82-4.09-.22-5.59,.41-2.79,1.17-5.22,1.68-8.83-3.2-2.7-2.15-2.39-5.33-2.22-7.06,.03-.29,.07-.68,.07-.88-.07-.13-.24-.4-.37-.61-1.06-1.73-3.27-5.32-1.72-10.09,.7-3.07,.05-5.42-.64-7.9-.96-3.47-2.05-7.39,1.52-12.41,.23-1.36-.11-2.03-.63-3.08-.42-.84-.94-1.89-1.14-3.32-.02-.13-.02-.25-.02-.38,.03-.71,.34-2.49,.91-5.84,.54-3.13,1.5-8.74,1.6-10.52-1.24-1.94-1.74-4.45-2.23-6.88-.83-4.11-1.55-6.88-3.96-7.74-.31-.11-.58-.29-.81-.54-1.51-1.66-1.97-3.29-2.37-4.73-.53-1.92-1.04-3.74-4.44-6.28-3.41-2.44-9.11-2.89-15.21-1.19-8.02,2.24-14.76,7.54-17.77,13.94,1.73,6.39,1.64,7.42-.43,10.88-.35,.59-.78,1.3-1.26,2.21,.78,4.39,.63,5.19-.45,7.57-.31,.7-.7,1.54-1.16,2.84,4.24,9.15,7.38,25.79,5.23,36-.37,2.25,.3,5.38,.88,8.15,.4,1.88,.78,3.65,.83,5.14,.01,.42-.1,.83-.33,1.17-1.62,2.44-1.36,2.89-.1,5.04,.6,1.02,1.34,2.28,1.98,4,.11,.29,.15,.6,.11,.9-.37,3.48,.49,9.75,2.66,11.63,.57,.5,.82,1.27,.63,2.01-.94,3.67,.13,5.2,2.46,8.56l.16,.23c.28,.41,.4,.9,.34,1.39-.82,6.39-.43,6.46,4.24,7.38,.81,.16,1.43,.79,1.58,1.6,.46,2.46,1.12,2.54,3.07,2.75,1.04,.11,2.22,.24,3.38,.84,.53,.27,.91,.77,1.04,1.35,.31,1.39,.57,2,.71,2.26,.18-.03,.43-.08,.62-.12,1.19-.26,2.99-.65,5.31,.17,.1,.04,.21,.08,.3,.14,1.78,.99,3.31,2.4,4.79,3.76,1.67,1.54,3.25,3,4.81,3.47,3.83-.37,6.75,.39,8.72,2.29,3.67,3.55,2.53,9.3,1.21,15.96-.29,1.48-.6,3.02-.86,4.57-1.24,7.43-1.39,15.25-.47,23.26,1.84-.54,3.36-.37,4.73,.18,.4-4.31,2.66-7.71,4.71-10.79,1.29-1.94,2.52-3.79,3.12-5.64-.36-2.68,.02-4.76,1.18-6.36,1.83-2.53,4.98-3.03,7.77-3.47,.18-.03,.37-.06,.55-.09,.96-4.52,3.21-6.15,5.99-8.17,.07-.05,.14-.1,.21-.16-.58-3.57-.03-6.23,1.66-8.1,3.37-3.74,10.16-2.94,17.35-2.09,5.88,.69,11.95,1.41,15.73-.35,.27-.12,.55-.19,.85-.19h0c1.27,0,2.56-.59,3.82-1.17,1.68-.77,3.41-1.56,5.1-.7,1.42,.72,1.92,2.25,2.13,3.1,1.69,2.61,4.64,5.59,7.74,8.74,7.12,7.22,15.18,15.39,13.23,24.01-.04,1.14-.26,7.22-.26,13.17,1.05-.42,1.99-.61,2.88-.61Z"/></g><g><path class="cls-3" d="M162.34,222.5c-2.67,1-5.33,2-8,3-.43-.88-1.36-3.11-1-6,.31-2.48,1.42-4.21,2-5,.08-.11,1.52-2.14,4-2,1.78,.1,3.36,1.28,4,3-.33,2.33-.67,4.67-1,7Z"/><path class="cls-7" d="M154.34,227c-.56,0-1.09-.31-1.35-.85-.72-1.49-1.51-3.89-1.14-6.84,.32-2.59,1.42-4.53,2.28-5.7,.7-1.01,2.64-2.76,5.29-2.61,2.38,.14,4.47,1.69,5.32,3.97,.09,.24,.12,.49,.08,.74l-1,7c-.08,.54-.44,1-.96,1.19l-8,3c-.17,.06-.35,.1-.53,.1Zm4.76-13.01c-1.54,0-2.49,1.3-2.53,1.36-.67,.92-1.5,2.38-1.74,4.33-.19,1.54,.05,2.89,.36,3.89l5.79-2.17,.81-5.7c-.5-.99-1.46-1.65-2.54-1.71-.05,0-.1,0-.16,0Zm3.24,8.51h0Z"/></g><g><path class="cls-3" d="M259.84,221.44c-.04,1.81-.18,3.85-.5,6.06-.27,1.83-.62,3.5-1,5-3-1.33-6-2.67-9-4-.46-4.94,2.38-8.75,5.47-9.15,2.51-.32,4.59,1.66,5.03,2.09Z"/><path class="cls-7" d="M258.34,234c-.21,0-.42-.04-.61-.13l-9-4c-.5-.22-.83-.69-.88-1.23-.56-6.04,3.08-10.3,6.77-10.78,2.98-.39,5.38,1.63,6.27,2.51,.29,.29,.45,.68,.44,1.09-.04,2.08-.21,4.18-.51,6.25-.25,1.73-.6,3.47-1.03,5.15-.11,.43-.4,.79-.8,.98-.21,.1-.43,.15-.65,.15Zm-7.55-6.5l6.5,2.89c.22-1.03,.41-2.07,.56-3.11,.25-1.72,.41-3.46,.47-5.2-.71-.59-1.98-1.42-3.32-1.25-2.11,.27-4.22,3.02-4.21,6.67Z"/></g><g><path class="cls-3" d="M144.81,218.07c-.34,5.62-1.13,10.45-5.06,10.71-1.8,.58-3.6,1.15-5.41,1.73-1.36-7.4,1.43-13.1,5-14,.49-.12,2.53-.54,5.47,1.57Z"/><path class="cls-7" d="M134.34,232c-.27,0-.54-.07-.77-.21-.37-.22-.63-.59-.7-1.02-1.56-8.49,1.88-14.66,6.11-15.73,1.16-.29,3.58-.45,6.71,1.8,.42,.3,.65,.79,.62,1.31-.26,4.34-.69,11.56-6.27,12.1l-5.24,1.67c-.15,.05-.3,.07-.46,.07Zm6-14.11c-.3,0-.51,.04-.63,.07-2.26,.57-4.74,4.49-4.13,10.58l3.72-1.19c.12-.04,.24-.06,.36-.07,2.15-.14,3.18-2.53,3.61-8.44-1.29-.78-2.29-.95-2.91-.95Z"/></g><g><path class="cls-3" d="M244.28,217.17c-.65,2.78-1.29,5.55-1.94,8.33l-9-3c.18-4.08,2.93-7.13,5.97-7.4,2.63-.23,4.61,1.7,4.98,2.07Z"/><path class="cls-7" d="M242.34,227c-.16,0-.32-.03-.47-.08l-9-3c-.64-.21-1.05-.82-1.02-1.49,.21-4.68,3.36-8.48,7.33-8.83,3.17-.29,5.52,1.85,6.17,2.51,.36,.37,.51,.89,.39,1.39l-1.94,8.33c-.1,.41-.36,.76-.73,.97-.23,.13-.48,.19-.73,.19Zm-7.38-5.54l6.29,2.1,1.37-5.86c-.7-.55-1.85-1.22-3.18-1.1-1.91,.17-3.94,2-4.47,4.87Z"/></g><g><path class="cls-6" d="M252.81,141.58s1.26,.57,2.57,.77"/><path class="cls-7" d="M255.38,144.35c-.1,0-.2,0-.31-.02-1.54-.24-2.93-.85-3.09-.92-1.01-.46-1.45-1.64-1-2.65,.45-1.01,1.64-1.46,2.64-1,.04,.02,1.05,.46,2.05,.61,1.09,.17,1.84,1.19,1.67,2.28-.15,.99-1,1.7-1.97,1.7Z"/></g><g><path class="cls-6" d="M228.72,170.2c-1.99-5.11-2.55-9.44-2.19-11.94"/><path class="cls-7" d="M228.72,172.2c-.8,0-1.56-.48-1.86-1.27-1.91-4.88-2.77-9.72-2.31-12.94,.16-1.09,1.17-1.85,2.26-1.7,1.09,.16,1.85,1.17,1.7,2.26-.28,1.99,.12,5.9,2.08,10.93,.4,1.03-.11,2.19-1.14,2.59-.24,.09-.48,.14-.73,.14Z"/></g><g><path class="cls-6" d="M187.31,167.44s1.52,2.74,1.97,4.57"/><path class="cls-7" d="M189.27,174.02c-.9,0-1.72-.61-1.94-1.53-.31-1.29-1.38-3.38-1.77-4.08-.54-.97-.19-2.18,.78-2.72,.97-.54,2.18-.19,2.72,.78,.17,.3,1.66,3.03,2.16,5.07,.26,1.07-.4,2.16-1.47,2.42-.16,.04-.32,.06-.47,.06Z"/></g></g><g><g><path class="cls-1" d="M169.47,45.31c-1.38-2.39-3.93-3.3-6.02-4.11-3.92-1.51-7.3-1.28-10.69-1.06-2.88,.19-7.41,.5-12.15,2.95-3.75,1.94-6.36,4.59-6.8,5.04-.34,.35-.61,.65-.8,.87h-2.28c-1.19,0-1.33,0-1.9,0-.49,0-.89,0-1.14,0-.41,0-.55,.06-.76,0-.48-.15-.71-.63-.76-.74-.59-1.14-5.31-4.63-6.08-5.17-3.07-2.17-8.33-3.49-13.11-3.49-3.1,0-6.31-.34-10.08,1.13-2.38,.92-5.75,2.24-7.2,5.31-2.62,5.57,3.21,12.44,4.56,14.03,1.17,1.38,3.78,4.38,8.36,5.91,3.52,1.18,6.51,.92,8.36,.74,2.44-.24,5.84-.57,9.12-2.95,3.41-2.48,4.79-5.81,5.32-7.38,.05-.23,.47-2.13,2.28-2.95,2.25-1.03,4.43,.63,4.56,.74,.98,.78,1.37,1.75,1.52,2.21,.92,2.84,3.06,5.21,4.56,6.64,3.51,3.37,7.79,4.08,9.88,4.43,1.61,.27,4.62,.74,8.2-.18,8.99-2.3,12.47-10.99,12.64-11.42,.88-2.32,2.59-6.8,.43-10.54Z"/><path class="cls-7" d="M152.04,69.32c-1.78,0-3.21-.24-4.09-.39-2.21-.37-6.82-1.14-10.67-4.83-2.5-2.39-4.16-4.84-4.95-7.26-.14-.42-.43-1.03-1.02-1.5-.01-.01-1.57-1.2-3-.55-1.12,.51-1.4,1.75-1.43,1.89-.01,.06-.03,.12-.05,.17-.78,2.32-2.42,5.62-5.86,8.12-3.61,2.63-7.37,2.99-9.85,3.23-1.77,.17-5.08,.49-8.98-.81-5.06-1.69-7.94-5.08-9.02-6.36-6.45-7.6-6.15-12.69-4.77-15.63,1.7-3.62,5.5-5.1,8.01-6.07,3.46-1.35,6.51-1.29,9.21-1.25,.48,0,.95,.02,1.41,.02,5.26,0,10.75,1.48,13.97,3.77,.06,.04,5.53,3.92,6.51,5.63,.07,0,.14,0,.22,0h1.94s2.71,0,2.71,0c.12-.13,.25-.26,.39-.41,.74-.76,3.43-3.39,7.18-5.33,5.02-2.6,9.86-2.92,12.74-3.12,3.49-.23,7.09-.48,11.33,1.15l.22,.08c2.21,.85,4.96,1.9,6.56,4.67h0c2.52,4.36,.6,9.4-.33,11.83-.15,.4-3.85,9.84-13.67,12.34-1.74,.44-3.34,.59-4.73,.59Zm-22.8-17.73c2.09,0,3.71,1.22,3.94,1.4,1.18,.94,1.75,2.11,2.01,2.93,.63,1.95,2.04,3.98,4.17,6.02,3.18,3.05,7.17,3.71,9.08,4.03,1.37,.23,4.23,.71,7.59-.15,8.33-2.13,11.57-10.42,11.61-10.51,.82-2.14,2.34-6.14,.53-9.26h0c-1.07-1.85-3.09-2.63-5.04-3.38l-.22-.09c-3.61-1.39-6.74-1.18-10.05-.96-2.83,.19-7.1,.48-11.56,2.79-3.35,1.73-5.75,4.08-6.41,4.75-.32,.33-.58,.61-.75,.81-.29,.32-.69,.51-1.12,.51h-5.32c-.11,0-.18,0-.25,.01-.22,.02-.55,.04-.95-.08-.48-.15-1.16-.52-1.65-1.47-.46-.73-3.95-3.46-5.62-4.64-2.71-1.92-7.63-3.21-12.25-3.21-.48,0-.97,0-1.46-.02-2.53-.04-5.15-.09-8.07,1.05-2.19,.85-5.19,2.02-6.39,4.55-1.42,3.03,.12,7.44,4.34,12.42,1.02,1.21,3.42,4.03,7.69,5.45,3.29,1.1,6.07,.83,7.74,.67,2.42-.23,5.43-.53,8.38-2.67,2.76-2.01,4.11-4.67,4.75-6.57,.15-.65,.83-2.88,3.1-3.92,.75-.34,1.49-.48,2.18-.48Z"/></g><path d="M163.04,50.75c-2.39-4.36-10.98-4.9-16.17-3.63-1.07,.26-7.82,1.91-8.79,6.62-.45,2.16,.52,4,.87,4.59,2.45,4.18,9.49,6.55,15.07,5.23,6.59-1.56,11.54-8.22,9.03-12.82Z"/><path d="M96.96,49.93c2.41-4.39,11.07-4.94,16.31-3.66,1.08,.26,7.88,1.93,8.86,6.67,.45,2.18-.52,4.03-.87,4.62-2.47,4.22-9.57,6.61-15.2,5.28-6.64-1.57-11.64-8.29-9.1-12.92Z"/></g><g><g><path d="M125.31,75.71c1.85,1.81,5.33,2.44,7.88,.61,2.58-1.86,2.97-5.36,1.82-7.88-1.43-3.11-5.22-4.71-7.88-3.64-3.66,1.48-4.88,7.91-1.82,10.91Z"/><g><path class="cls-3" d="M123.49,71.47s2.42,1.82,6.67,1.82,6.06-2.42,6.06-2.42c0,0,0,5.45-1.82,6.67s-7.27,1.21-9.09,0c-1.82-1.21-1.82-6.06-1.82-6.06Z"/><path class="cls-7" d="M129.85,79.93c-2.11,0-4.22-.39-5.38-1.16-2.37-1.58-2.49-6.36-2.49-7.31,0-.57,.32-1.09,.83-1.34,.5-.25,1.11-.2,1.56,.14,.04,.03,2.16,1.52,5.78,1.52,3.37,0,4.81-1.77,4.87-1.84,.4-.5,1.08-.7,1.67-.49,.6,.21,1.01,.77,1.01,1.41,0,1.47-.18,6.38-2.49,7.92-1.16,.77-3.27,1.16-5.38,1.16Zm-4.63-5.96c.21,1.12,.53,2.05,.91,2.31,1.32,.88,6.11,.88,7.43,0,.33-.22,.65-1.15,.87-2.35-1.1,.48-2.52,.85-4.28,.85-2.02,0-3.68-.38-4.93-.81Z"/></g><g><path class="cls-3" d="M119.25,63.59c.33-1.95,.76-4.58,3.03-6.67,2.79-2.57,6.3-2.46,7.27-2.42,.89,.03,4.58,.2,7.27,3.03,.62,.65,1.79,2.66,2.87,7.06,.79,3.2,.46,4.42,.23,4.92-.01,.03-.04,.08-.07,.15-1,1.89-3.82,2.66-5.45,2.42-2.66-.39-5.2-3.91-4.85-8.48,.64,3.83-1.45,7.17-4.24,7.88-1.89,.48-4.19-.21-5.45-1.82-1.35-1.72-.99-3.81-.61-6.06Z"/><path class="cls-7" d="M134.99,73.61c-.29,0-.56-.02-.81-.05-1.72-.25-3.44-1.46-4.62-3.37-.96,1.34-2.29,2.33-3.88,2.74-2.53,.64-5.41-.32-7-2.34-1.76-2.24-1.31-4.9-.91-7.24l1.48,.25-1.48-.25,1.48,.25-1.47-.32c.34-2.01,.86-5.04,3.48-7.45,2.15-1.98,4.94-2.93,8.34-2.82,1.92,.06,5.55,.6,8.31,3.49,1.14,1.2,2.33,4.02,3.24,7.73,.67,2.71,.71,4.64,.14,5.9-.03,.06-.06,.13-.12,.23-1.24,2.34-4.15,3.26-6.18,3.26Zm-3.87-7.75c.44,2.8,2.15,4.53,3.49,4.72,1.14,.16,3.28-.45,3.91-1.64,.1-.22,.42-1.13-.29-4-1.23-5.01-2.45-6.33-2.5-6.38-2.02-2.12-4.78-2.52-6.24-2.57-2.57-.08-4.66,.6-6.21,2.03-1.87,1.72-2.25,3.96-2.56,5.75,0,0-.01,.06-.01,.06-.39,2.29-.59,3.74,.31,4.88,.85,1.09,2.54,1.64,3.91,1.29,1.48-.38,2.85-1.94,3.16-4.09-.09-.77-.11-1.59-.05-2.45,.06-.76,.67-1.35,1.43-1.38,.75-.04,1.42,.5,1.55,1.25,.14,.86,.17,1.71,.09,2.53Z"/></g></g><g><path d="M129.55,62.98s3.64-.34,4.24-1.02,0-1.7-.61-1.7-2.42,0-3.03,.68-.61,2.05-.61,2.05Z"/><path class="cls-7" d="M129.55,64.48c-.37,0-.73-.14-1.01-.39-.31-.28-.49-.69-.49-1.11,0-.32,.05-1.99,.99-3.04,.93-1.05,2.71-1.19,4.15-1.19,.89,0,1.72,.58,2.12,1.48,.42,.93,.27,1.98-.4,2.72-.25,.28-1,1.12-5.22,1.52-.05,0-.09,0-.14,0Z"/></g><g><path d="M129.19,62.98s-3.64-.34-4.24-1.02,0-1.7,.61-1.7,2.42,0,3.03,.68,.61,2.05,.61,2.05Z"/><path class="cls-7" d="M129.19,64.48s-.09,0-.14,0c-4.22-.4-4.98-1.24-5.22-1.52-.66-.75-.82-1.79-.4-2.72,.4-.9,1.24-1.48,2.12-1.48,1.44,0,3.22,.13,4.15,1.19,.94,1.06,.98,2.72,.98,3.04,0,.42-.18,.82-.49,1.11-.28,.25-.64,.39-1.01,.39Z"/></g><g><path class="cls-6" d="M123.09,32.1c-1.69,1.71-1.69,3.6-.61,4.27,1.21,.75,4.47,.4,6.67-1.71-.72,1.52-.18,3.1,1.21,3.84,1.91,1.01,5.58,.51,7.27-1.71"/><path class="cls-7" d="M132.68,41c-1.2,0-2.34-.25-3.25-.73-.96-.5-1.67-1.26-2.1-2.15-2.23,.84-4.55,.78-5.89-.05-.92-.57-1.53-1.55-1.67-2.69-.19-1.57,.5-3.28,1.9-4.69,.78-.79,2.04-.79,2.83-.02,.79,.78,.79,2.04,.02,2.83-.52,.53-.7,.97-.76,1.21,.71,.09,2.58-.12,4.01-1.5,.7-.67,1.77-.74,2.56-.18,.78,.56,1.05,1.61,.64,2.48-.25,.52-.13,.97,.34,1.21,1.06,.56,3.67,.26,4.75-1.15,.67-.88,1.92-1.05,2.8-.38,.88,.67,1.05,1.92,.38,2.8-1.54,2.02-4.16,2.99-6.55,2.99Zm-8.94-6.08h0Z"/></g></g><g><ellipse class="cls-4" cx="195.58" cy="347.18" rx="136.73" ry="127"/><g class="cls-5"><g><path class="cls-2" d="M212.32,237.93c11.99-.75,43.89-16.52,43.89-16.52,4.74-1.86,3.71,12.89,4.56,16.59,.92,3.98,12.17,29.5,25.36,38.34,3.21,2.15-17.44,11.36-23.23,11.67-2.59,.14-14.07,7.04-21.51,11.4-1.31,.77-22.34,21.23-23.55,20.43-2.28-1.49-10.81-7.98-10.24-12.78,.38-3.17-6.84-11.69-5.08-15.07,2.73-5.27,9.21-7.8,14.48-10.37,5.27-2.56,12.54-11.29,12.54-11.29-4.74,1.86-29.31,12.74-31.17,8.01l-5.14-15.4-5.6-17.29c1.69-12.19,18.5-7.34,24.69-7.72Z"/><path class="cls-7" d="M217.89,321.45c-.35,0-.59-.16-.87-.34-.12-.08-11.68-7.73-10.9-14.21,.11-.91-1.26-3.5-2.27-5.39-1.97-3.73-4.02-7.58-2.66-10.2,2.64-5.1,8.28-7.77,13.26-10.12,.64-.3,1.28-.6,1.89-.9,2.36-1.15,5.2-3.67,7.53-6-11.11,4.48-21.32,7.96-25.17,6.33-1.05-.45-1.52-1.18-1.73-1.71l-5.17-15.48-5.6-17.31c-.07-.22-.09-.44-.06-.67,1.52-10.98,13.77-9.91,21.09-9.27,2.02,.18,3.77,.33,4.99,.25,11.55-.72,43-16.21,43.32-16.36,.04-.02,.08-.04,.12-.05,1.36-.53,2.37-.17,2.99,.22,2.43,1.56,2.85,6.3,3.19,12.82,.1,1.92,.19,3.74,.39,4.61,.96,4.16,12.07,28.94,24.73,37.44,.82,.55,1.17,1.48,.92,2.42-1.13,4.12-19.91,11.73-24.9,12-1.95,.1-12.61,6.37-18.34,9.73l-2.5,1.47c-.43,.3-3.24,2.91-5.94,5.42-13.86,12.88-16.94,15.31-18.32,15.31Zm11.65-52.6c.47,0,.93,.22,1.22,.62,.4,.56,.38,1.31-.06,1.84-.31,.37-7.54,9-13.04,11.68-.63,.31-1.27,.61-1.92,.92-4.77,2.26-9.7,4.59-11.88,8.79-.63,1.22,1.34,4.95,2.65,7.42,1.51,2.85,2.81,5.31,2.59,7.15-.38,3.14,5.34,8.4,8.96,10.93,2.51-1.61,11.26-9.74,16.12-14.24,4.71-4.38,5.97-5.52,6.47-5.81l2.5-1.46c9.97-5.85,17.21-10,19.7-10.14,4.99-.27,19.22-6.78,21.82-9.38-13.71-9.76-24.53-35.33-25.33-38.81-.26-1.13-.36-2.98-.47-5.13-.16-3.11-.5-9.6-1.82-10.45-.04-.03-.14,0-.22,.03-2.06,1.02-32.4,15.89-44.39,16.64h0c-1.45,.09-3.3-.07-5.44-.26-9.02-.79-16.59-.85-17.81,6.36l5.49,16.96,5.1,15.3c.73,.69,4.83,1.24,26.83-7.86,1.02-.42,1.84-.76,2.4-.98,.18-.07,.36-.1,.55-.1Zm-17.22-30.91h0Z"/></g><g><path class="cls-2" d="M182.22,472.68c-6.95-9.39-36.68-27.11-36.68-27.11-4.02-2.88,8.57-9.84,11.13-12.49,2.76-2.85,17.65-25.52,17.91-40.97,.06-3.76,18.5,8.24,21.8,12.8,1.48,2.04,13.18,7.76,20.67,11.55,1.32,.67,29.14,7.03,29.13,8.43-.01,2.65-.8,13.04-5.02,15.11-2.79,1.36-5.93,11.76-9.62,12.12-5.75,.56-11.24-3.4-16.12-6.34s-15.84-4.28-15.84-4.28c4.02,2.88,25.89,17.2,23.01,21.22l-9.86,12.33-11.16,13.71c-10.85,5.06-15.77-11.23-19.35-16.08Z"/><path class="cls-7" d="M197.58,491.23c-7.01,0-11.36-8.2-14.14-13.46-.92-1.75-1.72-3.25-2.43-4.21h0c-6.69-9.04-35.94-26.54-36.24-26.71-.04-.02-.07-.04-.11-.07-1.17-.83-1.41-1.87-1.41-2.59,0-2.83,3.64-5.69,8.8-9.41,1.52-1.09,2.95-2.13,3.55-2.75,2.89-2.98,17.24-25.13,17.49-39.95,.02-.98,.6-1.77,1.52-2.07,4.1-1.29,20.07,9.97,22.99,14.01,1.11,1.53,11.86,6.93,17.63,9.83l2.51,1.26c.48,.19,4.09,1.11,7.58,1.99,22.38,5.67,22.38,6.12,22.37,7.79,0,.14-.14,13.65-5.87,16.45-.78,.38-2.17,2.87-3.18,4.68-2,3.59-4.08,7.3-6.95,7.58-5.57,.54-10.74-2.66-15.3-5.48-.59-.36-1.17-.72-1.74-1.07-2.13-1.29-5.58-2.26-8.67-2.93,9.46,6.67,17.62,13.12,18.32,17.12,.19,1.11-.16,1.89-.49,2.35l-9.91,12.4-11.17,13.72c-.14,.18-.32,.32-.53,.41-1.66,.77-3.2,1.11-4.63,1.11Zm-14.16-19.45c.84,1.13,1.69,2.73,2.67,4.58,4.11,7.76,8.05,13.95,14.54,11.17l10.94-13.43,9.79-12.24c.13-.99-1.68-4.66-20.58-17.71-.88-.61-1.59-1.1-2.06-1.44-.56-.4-.77-1.12-.52-1.76,.25-.64,.89-1.02,1.58-.95,.46,.06,11.34,1.4,16.44,4.48,.58,.35,1.17,.72,1.77,1.09,4.36,2.7,8.86,5.49,13.43,5.05,1.31-.13,3.3-3.7,4.62-6.06,1.53-2.74,2.86-5.11,4.48-5.91,2.74-1.34,4.01-8.74,4.17-13.02-2.67-1.2-13.88-4.04-20.09-5.61-6.09-1.54-7.69-1.96-8.2-2.22l-2.5-1.26c-10.06-5.05-17.29-8.78-18.71-10.75-2.83-3.9-15.56-12.02-19.11-12.83-.76,16.36-15.89,38.67-18.31,41.17-.78,.81-2.25,1.87-3.94,3.09-2.13,1.54-7.8,5.64-7.55,6.99h0s.03,.04,.12,.12c1.94,1.16,30.1,18.07,37.05,27.47h0Z"/></g><g><path class="cls-2" d="M86.61,296.76l-10.44-7.77c-5.5-4.09-15.48-6.12-11.4-11.61l12.94-17.51c.28-.37,9.04-2.45,9.35-2.78,4.25-4.57,3.65,1.65,8.77,5.46l10.44,7.77c2.53,1.88,10.88,4.06,16.48,8.76,6.56,5.49,10.15,13.61,7.95,16.57,0,0,16.83-14.2,23.65-15.04,.38-.05,1.33-2.18,2.4-3.15,1.07-.96,3.64-.33,4.21,.11,1.91,1.49,1.5,8.8,.41,11.73-2.9,7.79-14.25,19.32-15.98,22.51-1.97,3.63-7.89,3.65-7.89,7.31,0,4.84-3.02,6.24-6.87,8.74-2.26,1.47-7.24-3.5-8.67-4.28-5.51-2.99-3.9-10.71-3.9-10.71-4.09,5.5-25.96-12.03-31.46-16.12Z"/><path class="cls-7" d="M129.66,329.65c-2.31,0-4.96-2.08-7.01-3.7-.54-.42-1.15-.91-1.39-1.04-4.16-2.26-4.91-6.63-4.91-9.52-5.82,.73-17.22-7.24-28.68-15.95-.77-.59-1.43-1.09-1.95-1.47l-10.44-7.76c-1.49-1.11-3.4-2.09-5.25-3.04-3.57-1.83-6.94-3.57-7.6-6.39-.32-1.39,.06-2.83,1.14-4.28l12.94-17.51c.41-.56,.63-.66,5.78-2.04,1.39-.37,3.24-.87,3.88-1.09,.95-.98,2.18-1.99,3.6-1.85,1.58,.16,2.45,1.56,3.36,3.05,.83,1.34,1.85,3.01,3.6,4.31l10.44,7.77c.8,.59,2.5,1.32,4.48,2.16,3.53,1.5,8.37,3.56,12.07,6.65,5,4.19,8.42,9.82,9.02,14.12,5.13-4.1,15.27-11.74,20.89-12.84,.1-.15,.22-.34,.32-.5,.48-.76,1.08-1.71,1.81-2.37,1.75-1.57,5.12-.74,6.13,.05,2.8,2.17,1.99,10.5,.9,13.43-2.02,5.42-7.74,12.32-11.92,17.37-1.95,2.36-3.64,4.39-4.15,5.33-1.12,2.06-3.1,3.1-4.85,4.02-1.99,1.04-2.86,1.6-2.86,2.58,0,5.2-3.14,7.19-6.46,9.31-.35,.22-.71,.45-1.08,.69-.56,.37-1.17,.52-1.8,.52Zm-11.59-18.27c.21,0,.42,.04,.61,.13,.64,.29,1,.98,.85,1.67-.01,.06-1.29,6.67,3.15,9.09,.46,.25,1.03,.7,1.81,1.31,3.93,3.09,5.02,3.22,5.32,3.02,.38-.25,.75-.48,1.11-.71,3.27-2.08,5.07-3.23,5.07-6.78,0-2.9,2.47-4.2,4.46-5.24,1.44-.75,2.93-1.54,3.61-2.79,.65-1.2,2.26-3.13,4.48-5.81,4.04-4.88,9.58-11.56,11.42-16.5,1.16-3.11,1.04-9.23,.08-10.02-.45-.26-1.96-.44-2.29-.18-.42,.37-.91,1.16-1.28,1.73-.64,1.01-1.06,1.67-1.94,1.78-5.23,.65-18.28,10.83-22.87,14.7-.58,.49-1.44,.47-1.99-.05-.56-.52-.63-1.38-.18-1.99,1.46-1.97-1.41-9.26-7.7-14.53-3.35-2.81-7.77-4.68-11.32-6.19-2.24-.95-4.01-1.71-5.1-2.51l-10.44-7.77c-2.21-1.64-3.45-3.67-4.36-5.15-.36-.59-.84-1.37-1.12-1.61-.16,.07-.56,.31-1.3,1.11-.4,.43-.59,.51-5.1,1.72-1.47,.39-3.6,.96-4.37,1.23l-12.72,17.21c-.8,1.08-.67,1.64-.63,1.82,.34,1.47,3.37,3.03,6.05,4.4,1.95,1,3.98,2.04,5.67,3.3l10.44,7.76h0c.52,.39,1.19,.89,1.97,1.49,5.8,4.41,21.2,16.12,26.54,15.36,.53-.08,.74-.28,.85-.42,.29-.39,.74-.61,1.2-.61Z"/></g><g><path class="cls-2" d="M112.49,432.81l-7.1,8.32c-2.37,1.93-2.17,4.89-4.1,2.52,0,0-8.59-10.32-12.22-12.87-1.6-1.13-8.88-1.29-12.52-4.87-2.6-2.55-1.46-6.75-5.15-7.43-7.21-1.34-8.9-.62-9.27-3.07-.62-4.13-8.28-14.03-11.15-16.28-1.97-1.54-4.27-6.01-5.36-7.68-.41-.63-.17-1.69,0-2.38,.35-1.46,.63-1.66,1.54-4.46,.26-.81,.88-2.23,1.5-3.76,.42-1.03,1.43-3.57,2.07-4.52,.54-.8-.26-.13,1.02-.72,2.05-.93,4.33,8.2,7.04,8.51,5.05,.57,12.99-9.51,16.17-12.29,8.3-7.26,18.36-27,18.78-27.62,3.64-5.35,20.23,7.19,25.03,11.86,2.33,2.27,10.67,9.92,12.38,13.37,1.03,2.07-14.14,21.37-16.69,23.79-4.91,4.66-10.42,17.79-8.98,23.56,.84,3.34,8.68,10.7,8.68,10.7,1.93,2.37,.7,3.38-1.67,5.31Z"/><path class="cls-7" d="M102.46,446.03c-1.02,0-1.78-.76-2.33-1.43-.07-.09-8.5-10.18-11.92-12.6-.32-.22-1.68-.52-2.77-.77-3.06-.68-7.25-1.62-9.94-4.26-1.35-1.32-1.88-2.97-2.3-4.29-.61-1.89-.9-2.52-2.07-2.74-2-.37-3.55-.58-4.8-.75-3.27-.44-5.24-.7-5.68-3.58-.55-3.63-7.94-13.25-10.59-15.32-1.72-1.35-3.47-4.31-4.75-6.48-.37-.63-.69-1.17-.94-1.56-.78-1.19-.41-2.73-.21-3.55,.21-.86,.41-1.36,.66-2,.22-.57,.5-1.28,.92-2.56,.21-.65,.6-1.58,1.05-2.66l.61-1.48c.69-1.7,1.47-3.58,2.09-4.5,.02-.03,.04-.05,.05-.08,.18-.53,.66-.93,1.22-1.02,.08-.03,.19-.07,.38-.16,2.31-1.05,3.78,1.75,5.21,4.45,.69,1.3,1.97,3.72,2.64,3.94,3.1,.33,8.67-5.46,11.99-8.93,1.19-1.24,2.21-2.31,3-3,3.23-2.83,8.96-9.66,17.88-26.17,.36-.67,.59-1.07,.64-1.16,.76-1.11,1.94-1.78,3.42-1.93,6.82-.7,20.09,9.85,23.9,13.56,.33,.32,.77,.74,1.3,1.24,3.42,3.26,9.79,9.33,11.38,12.53,.46,.92,1.09,2.19-7.14,13.32-3.78,5.12-8.39,10.83-9.86,12.22-4.5,4.26-9.87,16.87-8.55,22.11,.53,2.12,5.34,7.24,8.25,9.97,.05,.04,.09,.09,.14,.15,2.84,3.48,.43,5.54-1.78,7.34l-7.01,8.22c-.06,.07-.12,.13-.19,.19-.68,.56-1.11,1.26-1.49,1.88-.51,.83-1.08,1.78-2.25,1.86-.05,0-.1,0-.14,0Zm-50.49-68.85c-.5,.76-1.4,2.99-1.79,3.94l-.62,1.5c-.41,.98-.79,1.91-.97,2.45-.45,1.37-.75,2.15-.98,2.72-.24,.62-.37,.96-.54,1.62-.2,.83-.2,1.15-.17,1.26,.24,.35,.59,.94,.99,1.62,1.09,1.85,2.74,4.65,4.01,5.64,2.89,2.26,10.99,12.43,11.71,17.24,.09,.6,.1,.65,3.11,1.05,1.28,.17,2.88,.39,4.95,.77,3.03,.56,3.78,2.89,4.38,4.77,.37,1.16,.73,2.26,1.55,3.07,2.08,2.04,5.78,2.87,8.49,3.47,1.77,.39,3.05,.68,3.84,1.24,3.55,2.5,11.29,11.69,12.39,13,.43-.71,1.02-1.65,2.01-2.49l7.02-8.23c.06-.07,.12-.13,.19-.19,2.39-1.95,2.42-2.01,1.52-3.13-1.52-1.43-8.15-7.83-9.04-11.36-1.62-6.46,4.1-20,9.4-25.02,2.75-2.6,15.44-19.16,16.24-22.29-1.62-2.85-7.89-8.83-10.62-11.43-.54-.51-.99-.94-1.32-1.27-4.88-4.76-16.76-13.2-21.5-12.72-.77,.08-1.07,.38-1.24,.63-.04,.07-.22,.4-.49,.9-7.33,13.57-13.57,22.66-18.54,27.01-.69,.61-1.67,1.63-2.81,2.82-4.18,4.37-9.93,10.35-14.52,9.83-2.14-.24-3.5-2.8-4.93-5.51-.51-.97-1.24-2.36-1.73-2.91Zm53.43,63.95h0Zm-55.91-65.51s0,0,0,0c0,0,0,0,0,0Zm1.39-1.23s-.04,0-.09,0c.03,0,.06,0,.09,0Zm78.83-4.72h0Z"/></g><g><path class="cls-2" d="M242.8,375.11l-6.45-11.78c-1.18-3.56-4.67-4.62-1.1-5.8,0,0,15.58-5.35,20.1-8.39,1.99-1.34,5.36-9.62,11.05-12.23,4.06-1.86,8.38,1.27,10.77-2.66,4.68-7.68,4.59-9.94,7.57-9.29,5.01,1.09,19.71-3.37,23.54-5.68,2.63-1.59,8.76-2.27,11.15-2.79,.9-.2,2.01,.54,2.73,1.03,1.52,1.04,1.63,1.45,4.44,3.72,.81,.66,2.18,1.98,3.65,3.36,1,.93,3.47,3.2,4.29,4.34,.69,.97,.27-.24,.38,1.48,.17,2.75-11.3,1.38-12.83,4.36-2.86,5.54,5.23,19.05,7.04,23.92,4.71,12.69,22.95,32.84,23.47,33.59,4.55,6.51-17.07,20.06-24.53,23.52-3.63,1.68-16.03,7.9-20.73,8.36-2.82,.28-18.33-25.55-19.99-29.53-3.2-7.67-15.85-19.72-23.11-20.58-4.2-.5-16.06,5.28-16.06,5.28-3.56,1.18-4.18-.67-5.36-4.24Z"/><path class="cls-7" d="M307.14,425.68c-1.15,0-3.28-1.03-11.52-13.87-4.21-6.56-8.73-14.31-9.68-16.59-2.96-7.09-15.22-18.88-21.9-19.67-2.75-.32-10.79,2.98-15.23,5.14-.06,.03-.12,.05-.18,.08-4.92,1.63-6.06-1.59-7.22-5.06l-6.38-11.66c-.04-.08-.08-.16-.11-.25-.36-1.08-1-1.91-1.56-2.63-.72-.92-1.46-1.88-1.09-3.08,.35-1.14,1.52-1.66,2.5-1.99,.14-.05,15.43-5.31,19.73-8.21,.44-.29,1.36-1.7,2.18-2.93,2.1-3.18,4.97-7.53,9.08-9.42,2.03-.93,4.01-.83,5.76-.73,2.31,.12,3.46,.12,4.35-1.34,1.3-2.14,2.22-3.83,2.96-5.2,1.92-3.53,2.98-5.48,6.21-4.78,4.46,.97,18.87-3.35,22.44-5.5,2.24-1.35,6.37-2.06,9.39-2.57,.89-.15,1.66-.28,2.22-.4,1.57-.35,3.08,.7,3.9,1.26,.88,.6,1.34,1.02,1.98,1.6,.56,.51,1.25,1.13,2.56,2.19,.64,.52,1.53,1.36,2.57,2.34l1.42,1.33c1.64,1.52,3.45,3.24,4.22,4.33,.04,.06,.07,.1,.1,.13,.46,.37,.67,.99,.54,1.56,0,.06,0,.22,.01,.57,.17,2.78-3.35,3.22-7.08,3.67-1.79,.22-5.51,.68-5.92,1.46-1.85,3.59,2.43,12.6,4.99,17.98,.9,1.89,1.68,3.53,2.12,4.73,1.84,4.96,7.2,14.55,22.27,32.03,.74,.86,.92,1.07,1.03,1.22,.89,1.27,1.12,2.82,.67,4.48-2.15,8-19.92,18.53-25.8,21.26-.51,.24-1.19,.56-2,.95-5.21,2.49-14.92,7.12-19.22,7.54-.1,0-.21,.02-.32,.02Zm.4-2.97s0,0,0,0h0Zm-43.83-50.18c.24,0,.47,.01,.69,.04,7.8,.92,20.94,13.41,24.31,21.49,1.86,4.46,15.62,26.72,18.71,28.58,3.94-.53,13.39-5.05,17.98-7.24,.82-.39,1.51-.72,2.03-.96,7.36-3.42,22.55-13.33,24.17-19.32,.29-1.07,0-1.64-.23-1.98-.07-.09-.37-.44-.84-.98-12.33-14.31-20.01-25.39-22.81-32.95-.4-1.07-1.15-2.65-2.02-4.48-3.16-6.64-7.48-15.74-4.94-20.64,1.13-2.19,4.57-2.61,8.21-3.06,1.41-.17,3.69-.45,4.44-.84,0-.1,0-.19,0-.27-.03-.04-.05-.07-.08-.11-.66-.93-2.87-2.99-3.82-3.87l-1.44-1.35c-.95-.9-1.85-1.75-2.4-2.19-1.37-1.11-2.13-1.79-2.68-2.3-.59-.54-.95-.86-1.66-1.35-1.05-.72-1.44-.83-1.57-.8-.58,.13-1.4,.27-2.34,.43-2.62,.45-6.59,1.12-8.34,2.18-3.72,2.25-19,7.09-24.63,5.86-.94-.21-1.04-.23-2.94,3.27-.76,1.39-1.7,3.13-3.04,5.33-1.86,3.05-4.75,2.9-7.07,2.78-1.54-.08-2.99-.16-4.35,.46-3.34,1.53-5.93,5.47-7.83,8.34-1.2,1.82-2.07,3.14-3.01,3.77-4.63,3.12-19.8,8.34-20.45,8.56-.09,.03-.16,.06-.23,.08,.08,.11,.16,.21,.24,.31,.62,.8,1.46,1.89,1.99,3.39l6.38,11.67c.04,.08,.08,.16,.11,.25,1.28,3.84,1.48,3.94,3.37,3.32,1.55-.75,11.37-5.42,16.12-5.42Zm72.67-42.75s-.01,.04-.02,.06c0-.01,.01-.03,.02-.06Zm0-.05h0Zm-.69-1.64s0,0,0,0c0,0,0,0,0,0Z"/></g></g></g><path class="cls-7" d="M195.58,476.68c-76.77,0-139.23-58.09-139.23-129.5s62.46-129.5,139.23-129.5,139.23,58.09,139.23,129.5-62.46,129.5-139.23,129.5Zm0-254c-74.01,0-134.23,55.85-134.23,124.5s60.21,124.5,134.23,124.5,134.23-55.85,134.23-124.5-60.21-124.5-134.23-124.5Z"/></g><g><g><path class="cls-6" d="M8.47,403.19l-3.92-16.52c-.48-1.76-1.11-3.33-1.87-4.69-.32-.59-.53-1.12-.65-1.6-.4-1.69,.46-3.64,2.59-5.83,2.13-2.19,4.52-3.61,7.18-4.24,1.82-.43,3.28-.19,4.38,.72,.83,.69,1.38,1.62,1.65,2.79,.26,1.11,.18,2.14-.24,3.1-.42,.96-1.25,2.01-2.48,3.14-1.13,1-1.85,1.74-2.15,2.23-.3,.49-.39,1.02-.25,1.58,.18,.77,.64,1.25,1.37,1.43,.73,.18,1.83,.09,3.32-.26l17.56-4.17c1.8-.43,3.06-.92,3.79-1.49s1.18-1.43,1.38-2.58c.21-1.24,.49-2.12,.82-2.63,.33-.51,.87-.85,1.63-1.03,1.51-.36,2.87,.4,4.08,2.26,1.21,1.87,2.32,4.91,3.33,9.13,1.23,5.18,1.71,9.13,1.45,11.84-.21,2.28-1.11,3.61-2.7,3.98-.86,.2-1.61-.01-2.27-.65-.15-.16-.58-.85-1.28-2.05-.42-.74-.99-1.18-1.71-1.33-.72-.15-2.02-.1-3.91,.15-1.67,.22-4.35,.69-8.03,1.41-3.68,.72-6.86,1.4-9.54,2.03-1.88,.45-3.18,.91-3.91,1.39-.72,.48-1.01,1.06-.85,1.72,.19,.82,.97,1.47,2.32,1.97,2.46,.89,4.15,1.71,5.05,2.45,1.07,.87,1.72,1.81,1.96,2.81,.27,1.13,.06,2.16-.61,3.09-.67,.93-1.67,1.56-2.99,1.87-1.3,.31-2.79,.35-4.49,.14-1.7-.21-3.32-.66-4.87-1.33-2.51-1.08-3.95-2.4-4.31-3.94-.1-.42-.15-.91-.15-1.49-.04-1.18-.1-2.15-.19-2.89-.09-.74-.24-1.58-.47-2.52Z"/><path class="cls-7" d="M20.46,416.99c-.7,0-1.42-.05-2.18-.14-1.83-.23-3.6-.72-5.28-1.44-2.95-1.27-4.7-2.95-5.18-4.97-.13-.53-.19-1.13-.19-1.83-.04-1.09-.1-2.02-.18-2.72-.08-.68-.23-1.47-.44-2.35l-3.92-16.52c-.44-1.59-1.02-3.05-1.72-4.3-.4-.73-.65-1.38-.8-1.99-.53-2.21,.47-4.64,2.97-7.22,2.32-2.39,4.98-3.96,7.91-4.65,2.29-.54,4.2-.2,5.68,1.02,1.08,.9,1.8,2.11,2.16,3.6,.34,1.43,.23,2.79-.33,4.06-.51,1.16-1.44,2.35-2.84,3.64-1.4,1.24-1.79,1.75-1.89,1.92-.09,.15-.11,.27-.07,.45,.06,.27,.13,.29,.27,.32,.22,.05,.92,.14,2.61-.26l17.56-4.17c2.07-.49,2.9-.97,3.21-1.21,.42-.33,.69-.87,.82-1.64,.26-1.49,.59-2.5,1.04-3.2,.55-.84,1.4-1.41,2.54-1.67,1.5-.35,3.7-.14,5.68,2.9,1.32,2.03,2.48,5.17,3.53,9.6,1.28,5.4,1.77,9.43,1.49,12.34-.34,3.71-2.28,4.93-3.84,5.3-1.36,.32-2.63-.03-3.66-1.03-.24-.25-.48-.57-1.53-2.37-.27-.48-.53-.58-.72-.62-.25-.05-1.08-.14-3.41,.17-1.62,.21-4.3,.68-7.94,1.39-3.65,.71-6.83,1.39-9.48,2.02-2.23,.53-3.1,.97-3.43,1.18-.19,.13-.24,.21-.24,.21,.06,.08,.39,.46,1.4,.82,2.64,.96,4.44,1.84,5.48,2.69,1.33,1.08,2.16,2.3,2.47,3.63,.37,1.55,.07,3.04-.85,4.32-.89,1.23-2.18,2.05-3.85,2.45-.87,.21-1.82,.31-2.84,.31Zm-7.02-45.39c-.39,0-.82,.06-1.29,.17-2.36,.56-4.53,1.84-6.45,3.82-1.2,1.23-2.55,3-2.21,4.44,.08,.35,.25,.77,.51,1.24,.81,1.44,1.49,3.13,2,5l3.93,16.58h0c.24,1,.4,1.9,.5,2.69,.09,.78,.16,1.8,.2,3.01,0,.5,.04,.88,.11,1.19,.31,1.31,2.05,2.31,3.45,2.91,1.42,.61,2.92,1.02,4.46,1.22,1.51,.19,2.84,.16,3.95-.11,.96-.23,1.65-.65,2.11-1.29,.42-.58,.53-1.16,.37-1.87-.16-.67-.65-1.34-1.45-2-.53-.43-1.76-1.16-4.61-2.2-1.85-.68-2.95-1.7-3.27-3.03-.3-1.28,.23-2.49,1.48-3.32,.88-.59,2.32-1.11,4.39-1.6,2.68-.64,5.91-1.32,9.6-2.04,3.75-.73,6.41-1.2,8.12-1.42,2.1-.28,3.5-.32,4.41-.13,1.14,.24,2.08,.95,2.71,2.06,.73,1.24,1,1.65,1.08,1.77,.3,.27,.53,.28,.82,.21,.37-.09,1.34-.32,1.55-2.66,.25-2.54-.23-6.36-1.42-11.36-.96-4.03-2.01-6.95-3.12-8.66-1.25-1.91-2.14-1.7-2.48-1.62-.36,.09-.6,.22-.72,.39-.1,.15-.35,.66-.6,2.06-.25,1.52-.9,2.7-1.93,3.51-.91,.71-2.34,1.29-4.37,1.77l-17.56,4.17c-1.74,.41-3.05,.49-4.02,.25-1.28-.32-2.15-1.22-2.46-2.54-.22-.95-.07-1.89,.43-2.72,.39-.63,1.17-1.45,2.44-2.57,1.05-.96,1.77-1.85,2.1-2.62,.29-.66,.34-1.37,.15-2.15-.2-.85-.58-1.5-1.16-1.98-.47-.39-1.05-.58-1.78-.58Z"/></g><g><path class="cls-6" d="M3.3,338.38l13.43,1.48c1.6,.17,2.44-.26,2.53-1.29,.04-.51-.27-1.04-.94-1.59-2.86-2.31-4.15-5.21-3.87-8.68,.27-3.41,1.52-6.03,3.76-7.88,.99-.83,2.13-1.38,3.43-1.65,1.29-.28,3.12-.34,5.48-.2l11.62,.62c1.01,.06,1.76-.02,2.25-.23,.49-.21,1.12-.74,1.9-1.58,.54-.58,1.16-.85,1.84-.79,2.31,.18,3.19,3.76,2.64,10.75-.49,6.21-1.82,9.23-3.98,9.06-.36-.03-.64-.1-.82-.23-.18-.12-.67-.54-1.45-1.25-1.11-.99-4.02-1.67-8.73-2.05-2.85-.22-4.95-.12-6.3,.31-1.83,.57-2.82,1.76-2.97,3.58-.1,1.31,.29,2.31,1.19,3,.65,.5,1.92,.83,3.8,.98l6.2,.49c2.75,.07,4.32,.06,4.69-.02,.37-.08,1.09-.52,2.14-1.32,.48-.37,1.02-.53,1.62-.49,2.42,.19,3.38,3.43,2.89,9.73-.58,7.37-2.12,10.95-4.63,10.75-.58-.04-1.01-.2-1.31-.46-.29-.26-.72-.88-1.29-1.85-.51-.86-2.03-1.54-4.54-2.06-2.51-.51-6.7-1-12.57-1.46-4.6-.36-7.81-.49-9.6-.37-.67,.03-1.17,.15-1.5,.35-.33,.2-.68,.6-1.05,1.19-.79,1.27-1.64,1.88-2.53,1.8-1.07-.08-1.9-.66-2.48-1.71-.58-1.06-1.15-3.04-1.7-5.95-.77-3.94-1.06-7.05-.88-9.35,.1-1.24,.68-1.8,1.75-1.67Z"/><path class="cls-7" d="M41.21,361.42c-.11,0-.22,0-.32-.01-.91-.07-1.65-.35-2.19-.83-.28-.25-.72-.73-1.59-2.21-.01-.02-.46-.72-3.55-1.34-2.45-.5-6.62-.98-12.39-1.43-4.51-.36-7.67-.48-9.39-.37-.62,.03-.81,.13-.82,.14h0s-.2,.13-.55,.7c-1.11,1.78-2.43,2.63-3.93,2.51-1.1-.09-2.63-.59-3.68-2.49-.67-1.21-1.28-3.31-1.86-6.4-.8-4.1-1.09-7.29-.9-9.74,.09-1.09,.46-1.91,1.12-2.45,.42-.35,1.16-.73,2.29-.59l13.42,1.48c.34,.04,.58,.03,.73,.01-.06-.07-.15-.15-.27-.25-3.24-2.63-4.73-5.98-4.42-9.96,.3-3.81,1.75-6.81,4.3-8.92,1.17-.98,2.54-1.64,4.07-1.96,1.44-.31,3.36-.38,5.88-.23l11.61,.62c1.09,.06,1.48-.07,1.58-.11,.08-.03,.49-.24,1.39-1.22,1.09-1.17,2.27-1.34,3.06-1.27,1.28,.1,2.97,.87,3.73,3.96,.48,1.97,.58,4.71,.29,8.4-.23,2.96-.83,10.82-5.59,10.44-.63-.05-1.13-.2-1.53-.47-.19-.13-.52-.38-1.63-1.38-.38-.34-1.92-1.2-7.84-1.66-3.29-.26-4.93,0-5.72,.25-1.26,.39-1.83,1.07-1.93,2.27-.08,1.02,.28,1.45,.61,1.7,.14,.11,.79,.49,3,.67l6.2,.49c3.45,.08,4.16,.02,4.29,0-.03,0,.31-.13,1.51-1.04,.76-.59,1.68-.87,2.65-.79,1.3,.1,3.02,.82,3.86,3.64,.54,1.82,.67,4.33,.41,7.7-.31,3.88-.87,6.73-1.71,8.69-1.21,2.8-2.9,3.46-4.21,3.46Zm-.51-3.09s.12,.06,.42,.08c.54,.03,1.06-.51,1.54-1.64,.7-1.63,1.2-4.24,1.48-7.74,.23-2.95,.13-5.17-.29-6.61-.43-1.44-1-1.49-1.22-1.51-.23-.02-.4,.03-.59,.18-1.63,1.24-2.29,1.5-2.75,1.6-.35,.07-1.06,.15-5.03,.05l-6.28-.49c-2.23-.18-3.7-.59-4.6-1.29-.91-.7-1.94-2.02-1.76-4.31,.19-2.45,1.58-4.14,4.02-4.9,1.53-.49,3.78-.62,6.86-.37,6.79,.53,8.74,1.64,9.61,2.42,.79,.71,1.11,.98,1.23,1.07,.03,0,.09,.01,.17,.02,.59,.06,1.88-1.5,2.36-7.68,.26-3.31,.19-5.82-.21-7.45-.15-.61-.49-1.64-1.06-1.69-.11,0-.3-.02-.62,.32-.94,1.02-1.71,1.64-2.41,1.94-.71,.3-1.67,.42-2.92,.34l-11.61-.62c-2.22-.13-3.93-.08-5.09,.17-1.06,.23-1.97,.66-2.78,1.34-1.93,1.6-2.98,3.84-3.22,6.85-.23,2.97,.85,5.39,3.32,7.39,1.07,.88,1.57,1.85,1.49,2.88-.08,1.02-.58,1.63-.98,1.97-.74,.62-1.79,.85-3.2,.69l-13.43-1.48s-.03,0-.04,0c-.02,.07-.03,.17-.05,.3-.17,2.15,.12,5.16,.86,8.94,.64,3.42,1.19,4.88,1.54,5.51,.43,.78,.89,.91,1.29,.94,.18-.01,.62-.26,1.14-1.1,.5-.8,1-1.35,1.54-1.68,.55-.34,1.27-.52,2.21-.57,1.87-.12,5.08,0,9.8,.37,5.9,.46,10.19,.96,12.75,1.49,3.02,.61,4.77,1.49,5.53,2.76,.7,1.19,.97,1.47,1,1.5,0,0,0,0,0,0Z"/></g><g><path class="cls-6" d="M24.55,287.77c.4-1.07,.79-1.66,1.18-1.78,.39-.12,1.43,.04,3.13,.47,.92,.23,1.48,.09,1.68-.44,.15-.4,0-.89-.44-1.47-1.91-2.55-2.38-5.13-1.4-7.72,.69-1.83,1.84-3.11,3.47-3.83,.79-.34,1.72-.53,2.77-.54,1.05-.02,2,.13,2.84,.45,.95,.36,1.83,.94,2.66,1.76,.83,.82,1.43,1.7,1.81,2.64,.74,1.75,.76,3.56,.06,5.43-.39,1.03-.89,1.82-1.51,2.38-.62,.56-1.7,1.19-3.23,1.9-.58,.26-.94,.58-1.08,.94-.21,.56-.03,1.05,.54,1.46,.57,.41,1.87,1,3.9,1.76,3.04,1.14,5.15,1.81,6.34,2,.66,.09,1.15,.05,1.47-.12,.33-.17,.76-.61,1.32-1.35,1.22-1.61,2.51-2.16,3.86-1.65,.83,.31,1.43,.87,1.83,1.68,.39,.81,.51,1.74,.35,2.78-.32,2.08-1.19,4.99-2.59,8.73-1.34,3.56-2.67,6.15-3.98,7.76-1.18,1.44-2.47,1.9-3.86,1.38-1.05-.39-1.75-1.35-2.13-2.86-.16-.73-.36-1.26-.59-1.6-.23-.34-.6-.65-1.11-.93-1.71-1.01-5.04-2.44-9.99-4.3-.9-.34-1.59-.48-2.06-.43-.47,.05-.94,.34-1.4,.85-1.1,1.22-2.18,1.62-3.25,1.22-.97-.36-1.61-1.17-1.93-2.41-.32-1.25-.39-3.15-.21-5.72,.24-3.44,.76-6.26,1.55-8.44Z"/><path class="cls-7" d="M46.74,314.09c-.64,0-1.19-.14-1.61-.3-1.53-.58-2.56-1.89-3.05-3.91-.18-.79-.33-1.05-.37-1.12-.04-.06-.19-.23-.6-.46-1.66-.98-4.94-2.39-9.79-4.21-1.01-.38-1.35-.34-1.36-.34h0s-.16,.04-.46,.37c-1.92,2.13-3.72,2.05-4.88,1.62-.99-.37-2.3-1.27-2.86-3.44-.37-1.42-.45-3.45-.25-6.21,.25-3.56,.8-6.54,1.64-8.84,0,0,0,0,0-.01,.4-1.07,1.01-2.34,2.15-2.69,.54-.16,1.29-.17,3.15,.26-1.85-2.79-2.24-5.65-1.16-8.52,.83-2.21,2.27-3.78,4.26-4.67,.99-.43,2.11-.65,3.35-.67,1.23-.02,2.38,.16,3.4,.54,1.14,.43,2.21,1.13,3.19,2.09,.97,.96,1.7,2.02,2.15,3.15,.88,2.08,.91,4.28,.07,6.51-.47,1.25-1.11,2.25-1.92,2.96-.74,.66-1.92,1.37-3.6,2.15,.43,.24,1.35,.67,3.26,1.39,3.65,1.37,5.31,1.8,6.05,1.93,.37,.05,.55,.02,.59,0,0-.01,.25-.21,.76-.89,2.19-2.88,4.44-2.58,5.58-2.15,1.19,.45,2.08,1.27,2.65,2.43,.53,1.09,.69,2.33,.48,3.67-.34,2.2-1.21,5.16-2.67,9.03-1.41,3.75-2.79,6.43-4.23,8.18-1.37,1.67-2.79,2.13-3.94,2.13Zm-16.75-13.34c.65,0,1.42,.17,2.38,.54,5.08,1.91,8.42,3.35,10.22,4.41,.69,.38,1.23,.84,1.59,1.39,.34,.5,.6,1.19,.81,2.11,.36,1.48,.98,1.71,1.19,1.79,.35,.13,1.08,.41,2.17-.92,1.21-1.48,2.46-3.95,3.74-7.34,1.36-3.63,2.21-6.47,2.51-8.44,.12-.74,.04-1.36-.22-1.9-.23-.46-.54-.76-1.01-.93-.29-.11-.98-.37-2.14,1.15-.71,.95-1.28,1.5-1.83,1.78-.61,.31-1.38,.39-2.35,.27-1.34-.22-3.51-.9-6.67-2.08-2.9-1.09-3.81-1.63-4.25-1.94-1.12-.8-1.52-2-1.06-3.2,.28-.75,.91-1.34,1.86-1.78,1.72-.8,2.5-1.34,2.85-1.65,.44-.39,.81-.99,1.11-1.79,.57-1.51,.55-2.92-.04-4.31-.31-.78-.81-1.5-1.48-2.16-.68-.66-1.4-1.14-2.14-1.42-.66-.25-1.43-.37-2.29-.35-.85,.01-1.59,.16-2.2,.42-1.24,.55-2.11,1.53-2.66,2.98-.79,2.1-.4,4.16,1.2,6.3,.96,1.25,.89,2.27,.65,2.9-.18,.48-.96,1.99-3.45,1.36-1.21-.31-1.85-.41-2.17-.45-.09,.15-.21,.41-.37,.82-.74,2.04-1.23,4.74-1.46,8.02-.21,2.99-.03,4.5,.16,5.24,.26,1,.7,1.27,1.01,1.39,.16,.06,.65,.24,1.61-.83,.72-.79,1.51-1.24,2.34-1.33,.12-.01,.25-.02,.38-.02Zm7.84-12.17h0Zm-11.8-1.13h0Z"/></g><g><path class="cls-6" d="M33.14,244.02c1.02-1.57,2.12-2.62,3.3-3.16,1.18-.54,2.27-.49,3.26,.16,1.39,.9,2.04,2.31,1.95,4.22-.15,3.03-1.24,6.1-3.26,9.22-.85,1.32-1.79,2.2-2.79,2.64-1.33,.62-2.57,.56-3.72-.19-1.55-1.01-2.05-2.9-1.49-5.69,.56-2.84,1.48-5.24,2.76-7.2Zm15.31,2.34l15.7,10.2c1.24,.81,2.23,1.29,2.95,1.44s1.55,.04,2.48-.33c.76-.3,1.34-.46,1.74-.46s.82,.13,1.25,.41c2.32,1.51,1.57,5.21-2.25,11.1-2.06,3.17-3.95,5.52-5.65,7.05-.59,.51-1.24,.82-1.94,.91-.7,.1-1.34-.04-1.92-.42-.49-.32-.8-.66-.94-1.03s-.25-1.16-.31-2.36c-.05-.83-.47-1.66-1.25-2.51-.78-.84-2.1-1.87-3.96-3.07-.59-.39-1.73-1.07-3.42-2.05-1.68-.98-2.67-1.54-2.97-1.68-.81-.37-1.7-.24-2.69,.41-1.21,.8-2.3,.89-3.25,.27-1.14-.74-1.51-2.02-1.12-3.84,.54-2.52,1.28-5.11,2.24-7.77s1.85-4.62,2.67-5.88c.64-.99,1.52-1.12,2.64-.4Z"/><path class="cls-7" d="M62.31,278.2c-.83,0-1.6-.23-2.31-.69-.76-.49-1.27-1.08-1.53-1.76-.14-.36-.31-1.01-.41-2.8-.03-.46-.32-.99-.86-1.57-.7-.75-1.94-1.7-3.68-2.84-.58-.37-1.71-1.05-3.35-2.01-2.23-1.29-2.74-1.56-2.86-1.62-.11-.05-.44-.2-1.22,.31-2.29,1.51-4.05,.82-4.89,.27-1.17-.76-2.43-2.32-1.77-5.41,.55-2.58,1.32-5.26,2.3-7.96,1.01-2.79,1.93-4.81,2.82-6.19,1.1-1.69,2.91-2.01,4.72-.84l15.7,10.2c1.42,.92,2.13,1.16,2.44,1.22,.43,.09,.97,0,1.62-.25,.95-.38,1.67-.56,2.27-.57,.72,0,1.41,.21,2.1,.65,1.18,.77,2.46,2.34,1.83,5.46-.42,2.06-1.61,4.58-3.65,7.71-2.12,3.26-4.11,5.74-5.91,7.35-.83,.72-1.74,1.15-2.74,1.28-.21,.03-.42,.04-.63,.04Zm-1.03-3.51s.06,.12,.35,.3c.28,.18,.56,.24,.9,.19,.41-.06,.79-.24,1.16-.56,1.59-1.42,3.41-3.69,5.38-6.74,1.8-2.77,2.89-5.02,3.22-6.67,.36-1.78-.26-2.18-.53-2.35-.16-.11-.29-.17-.41-.17-.06,0-.38,.02-1.22,.36-1.2,.48-2.33,.61-3.34,.4-.92-.19-2.05-.73-3.46-1.65l-15.7-10.2h0c-.25-.16-.39-.2-.44-.21,0,.02-.06,.07-.12,.17-.75,1.16-1.6,3.03-2.51,5.57-.93,2.58-1.66,5.12-2.18,7.57-.37,1.72,.22,2.11,.47,2.27,.2,.13,.61,.4,1.61-.26,1.79-1.18,3.24-.93,4.14-.52,.25,.12,.81,.42,3.09,1.74,1.69,.98,2.86,1.68,3.48,2.08,1.98,1.29,3.36,2.37,4.24,3.31,1.02,1.1,1.58,2.26,1.65,3.43,.09,1.5,.21,1.88,.22,1.92h0Zm-27.43-15.66c-.97,0-1.91-.29-2.79-.86-1.45-.94-3-2.96-2.14-7.25,.6-3.01,1.6-5.61,2.97-7.73h0c1.17-1.8,2.5-3.05,3.94-3.71,1.65-.75,3.28-.66,4.7,.27,1.28,.83,2.77,2.47,2.63,5.55-.16,3.29-1.34,6.64-3.5,9.97-1.01,1.56-2.17,2.63-3.44,3.2-.79,.37-1.58,.56-2.36,.56Zm.55-14.19h0c-1.17,1.79-2.02,4.04-2.54,6.68-.64,3.19,.47,3.91,.83,4.14,.71,.46,1.41,.49,2.27,.09,.76-.34,1.48-1.04,2.17-2.1,1.87-2.88,2.89-5.73,3.02-8.47,.08-1.8-.68-2.51-1.26-2.89-.39-.25-.92-.46-1.82-.05-.91,.42-1.81,1.29-2.66,2.61Z"/></g><g><path class="cls-6" d="M72.77,223.86l2.77-2.88c.46-.48,.87-.75,1.22-.82,.35-.07,.68,.08,.99,.44l2.58,2.85c.53,.57,.8,.99,.81,1.27,.01,.28-.21,.66-.67,1.14-.1,.11-.37,.35-.78,.72-.28,.26-.51,.49-.69,.67-.63,.65-.84,1.3-.64,1.94,.2,.64,.9,1.54,2.09,2.68,1.63,1.56,3.17,2.7,4.62,3.42,.61,.32,1.16,.46,1.64,.41,.48-.05,1.09-.29,1.84-.73,1.71-.97,3.12-.93,4.22,.12,1.16,1.12,1.23,2.72,.22,4.79-1.02,2.08-3.27,4.93-6.75,8.55-5.17,5.37-8.82,7.03-10.96,4.97-.53-.51-.81-.99-.84-1.45-.03-.46,.15-1.23,.56-2.3,.42-1.18,.21-2.34-.64-3.47-1.26-1.72-2.76-3.42-4.5-5.09-.77-.75-1.44-1.13-2-1.15-.56-.02-1.18,.33-1.85,1.06-.8,.84-1.36,1.33-1.67,1.48s-.62,.06-.93-.27l-2.75-3c-.45-.49-.67-.86-.66-1.1,.01-.24,.29-.68,.84-1.32,.52-.6,.52-1.16,0-1.66-.22-.21-.91-.48-2.09-.8-1.97-.52-3.6-1.4-4.88-2.64-1.89-1.82-2.8-3.95-2.74-6.4,.08-3.59,1.84-7.16,5.26-10.72,2.82-2.93,5.75-4.6,8.82-5.02,2.36-.32,4.24,.19,5.64,1.53,1.01,.97,1.53,2.12,1.58,3.45,.05,1.33-.4,2.49-1.36,3.48-1.07,1.11-2.49,1.81-4.24,2.09-.44,.05-1.62,.05-3.53,0-1.35-.02-2.35,.3-2.99,.97-.42,.43-.62,.95-.61,1.56,.01,.61,.24,1.13,.69,1.56,1.22,1.18,3.65,1.27,7.28,.29,1.12-.29,1.92-.45,2.42-.47,.49-.02,1.06,.09,1.7,.32,.29,.07,.62-.09,.99-.47Z"/><path class="cls-7" d="M77.36,255.79c-1.11,0-2.18-.37-3.13-1.29-.8-.77-1.24-1.59-1.29-2.43-.05-.7,.15-1.61,.65-2.93,.16-.44,.26-1.11-.44-2.05-1.21-1.65-2.67-3.3-4.33-4.9-.66-.63-.98-.72-1.02-.73,0,0-.24,.09-.69,.58-1.25,1.29-1.75,1.63-2.11,1.81-.91,.44-1.91,.22-2.68-.58l-2.76-3.02c-.51-.56-1.09-1.31-1.05-2.18,.02-.57,.3-1.13,.95-1.93-.24-.08-.59-.2-1.11-.34-2.19-.58-4.06-1.6-5.52-3.01-2.19-2.11-3.27-4.64-3.2-7.51,.09-3.96,2-7.9,5.68-11.73,3.04-3.16,6.3-5,9.69-5.47,2.83-.38,5.15,.27,6.88,1.94,1.29,1.24,1.98,2.75,2.04,4.47,.06,1.74-.53,3.28-1.78,4.57-1.3,1.35-3.01,2.2-5.09,2.53-.41,.05-1.16,.09-3.81,.02-.59-.01-1.45,.07-1.87,.51-.14,.15-.19,.28-.19,.49,0,.21,.07,.35,.23,.51,.37,.35,1.67,1.05,5.84-.07,1.27-.33,2.14-.5,2.76-.52,.54-.02,1.11,.06,1.73,.24l2.71-2.81c.69-.71,1.35-1.12,2.01-1.25,.52-.1,1.51-.11,2.41,.93l2.56,2.82c.81,.87,1.17,1.53,1.2,2.21,.04,.96-.6,1.74-1.09,2.25-.12,.12-.4,.39-.87,.8-.23,.22-.45,.42-.61,.59-.21,.22-.3,.39-.29,.45,.03,.1,.26,.67,1.7,2.05,1.51,1.45,2.94,2.51,4.25,3.16,.52,.27,.76,.27,.83,.27,.09,0,.45-.07,1.23-.53,3.1-1.76,5.1-.54,6.02,.34,1.15,1.11,2.18,3.14,.52,6.53-1.1,2.24-3.39,5.16-7.02,8.93-1.69,1.76-6.07,6.3-9.95,6.3Zm-1.43-3.93s.06,.17,.38,.47c1.35,1.3,4.57-.5,8.84-4.93,3.36-3.49,5.54-6.24,6.49-8.17,1.04-2.14,.35-2.8,.09-3.05-.27-.26-.84-.81-2.44,.1-.93,.55-1.74,.85-2.44,.92-.77,.08-1.6-.12-2.48-.58-1.55-.76-3.24-2-4.97-3.67-1.41-1.35-2.2-2.41-2.48-3.31-.21-.68-.37-2.02,.99-3.43,.19-.2,.44-.45,.75-.73,.4-.36,.63-.57,.73-.67,.03-.03,.06-.06,.08-.08-.06-.07-.14-.16-.24-.27l-2.4-2.64c-.06,.05-.13,.12-.21,.2l-2.77,2.88c-.96,.99-1.85,1.03-2.43,.89-.05-.01-.1-.03-.15-.04-.57-.21-.93-.24-1.15-.23-.21,0-.77,.07-2.09,.42-4.2,1.14-7.05,.92-8.7-.66-.73-.71-1.13-1.61-1.15-2.61-.02-1,.34-1.91,1.03-2.63,.94-.97,2.32-1.45,4.09-1.43,2.51,.07,3.16,.03,3.33,.01,1.39-.22,2.5-.76,3.35-1.64,.68-.7,.97-1.46,.94-2.38-.03-.93-.4-1.73-1.12-2.42-1.06-1.02-2.49-1.38-4.4-1.13-2.7,.37-5.37,1.91-7.94,4.58-3.14,3.26-4.77,6.53-4.85,9.72-.05,2.03,.7,3.76,2.28,5.28,1.09,1.05,2.52,1.82,4.23,2.27,1.79,.5,2.37,.82,2.74,1.17,1.1,1.06,1.14,2.52,.1,3.73-.12,.14-.21,.25-.28,.34,.02,.03,.05,.05,.08,.08l2.35,2.56c.19-.18,.46-.43,.81-.8,.95-1.04,1.94-1.55,2.98-1.52,.95,.03,1.93,.54,2.99,1.56,1.79,1.72,3.36,3.5,4.67,5.28,1.13,1.53,1.43,3.21,.84,4.86-.48,1.27-.48,1.67-.48,1.7h0Zm-14.49-14.07h0Zm18.25-12.75h0Zm0-.61h0Zm-8.13-1.51h0Z"/></g><g><path class="cls-6" d="M102.86,203.35l6.07,9.04c.72,1.07,1.57,1.77,2.55,2.09,.98,.32,1.88,.21,2.7-.34,.7-.47,1.4-1.41,2.11-2.81,.16-.34,.37-.6,.64-.78,.43-.29,.99-.29,1.7-.01,.7,.28,1.26,.72,1.67,1.33,.74,1.11,.85,2.57,.32,4.41-1.08,3.86-3.43,7-7.03,9.42-2.85,1.92-5.69,2.65-8.5,2.2-2.81-.45-5.11-2-6.88-4.64l-8.3-12.36c-.28-.41-.5-.63-.66-.66-.16-.03-.45,.09-.86,.37l-2.76,1.85c-.52,.35-.9,.48-1.16,.41-.26-.07-.59-.42-1.01-1.05l-.79-1.18c-.34-.55-.4-1.08-.18-1.59l7.08-15.94c.2-.36,.52-.7,.96-1l2.17-1.46c.45-.3,.81-.4,1.1-.29,.29,.1,.64,.46,1.04,1.06l2.43,3.61c.36,.54,.68,.83,.96,.87,.28,.05,.69-.12,1.25-.49l4.95-3.32c.66-.44,1.17-.61,1.53-.5s.8,.56,1.33,1.34l1.06,1.58c.57,.86,.85,1.53,.82,2.03-.03,.5-.37,.97-1.03,1.41l-4.84,3.25c-.5,.34-.78,.65-.84,.95-.06,.3,.08,.7,.42,1.2Z"/><path class="cls-7" d="M106.7,229.51c-.62,0-1.23-.05-1.85-.15-3.23-.52-5.88-2.29-7.89-5.28l-8.08-12.02-2.42,1.63c-.58,.39-1.46,.88-2.41,.61-.64-.18-1.19-.68-1.84-1.65l-.79-1.18c-.63-1-.73-2.06-.3-3.03l7.08-15.94s.03-.07,.05-.1c.31-.58,.8-1.1,1.45-1.53l2.17-1.46c.86-.58,1.68-.73,2.44-.46,.62,.22,1.17,.73,1.79,1.64l2.43,3.61s.02,.03,.03,.04c.03-.02,.06-.04,.09-.06l4.95-3.32c.39-.26,1.58-1.06,2.8-.69,.73,.22,1.38,.82,2.14,1.94l1.06,1.58c.78,1.16,1.12,2.1,1.07,2.95-.06,.99-.63,1.86-1.69,2.57l-4.84,3.25s-.03,.02-.04,.03c0,.01,.02,.03,.03,.04l6.07,9.04c.53,.79,1.11,1.29,1.77,1.5,.54,.18,.96,.13,1.4-.16,.27-.18,.83-.71,1.6-2.24,.26-.55,.65-1.02,1.14-1.35,.59-.4,1.61-.75,3.08-.17,.99,.39,1.78,1.02,2.36,1.88,1,1.49,1.17,3.39,.52,5.66-1.17,4.18-3.74,7.63-7.63,10.25-2.56,1.72-5.15,2.58-7.73,2.58Zm-17.51-20.79c.11,0,.23,.01,.34,.03,.76,.15,1.24,.74,1.62,1.3l8.3,12.36c1.54,2.3,3.47,3.61,5.87,3.99,2.44,.39,4.88-.25,7.43-1.96,3.33-2.24,5.43-5.04,6.42-8.58,.4-1.39,.36-2.45-.12-3.16-.24-.35-.55-.6-.97-.77-.22-.09-.34-.1-.38-.1,.02,0-.02,.07-.05,.14-.85,1.7-1.71,2.8-2.63,3.42-1.21,.81-2.59,.99-4.01,.52-1.3-.43-2.42-1.33-3.32-2.68l-6.07-9.04s0,0,0,0c-.57-.85-.78-1.61-.64-2.32,.14-.71,.62-1.33,1.47-1.91l4.84-3.25c.21-.14,.31-.24,.36-.3-.03-.13-.15-.46-.55-1.06l-1.06-1.58c-.2-.3-.36-.5-.47-.62-.08,.04-.18,.1-.31,.19l-4.95,3.32c-.57,.38-1.43,.87-2.33,.72-.94-.16-1.56-.94-1.95-1.51l-2.43-3.61c-.07-.11-.14-.2-.2-.27l-2.04,1.37c-.27,.18-.39,.33-.46,.43l-7.05,15.87s0,.07,.08,.19l.76,1.13c.05,.08,.1,.14,.14,.2l2.71-1.82c.47-.32,1.03-.63,1.64-.63Zm14.63-6.03h0Z"/></g></g><g><g><path class="cls-6" d="M309.99,211.75l-9.36,11.46c-2.11,2.58-3.24,4.43-3.4,5.54-.17,1.33,.62,2.72,2.39,4.16,1.9,1.55,3.73,2.36,5.51,2.42,1.78,.07,3.6-.61,5.48-2.02,1.13-.88,2.14-.96,3.02-.24,.88,.72,1.28,1.7,1.19,2.95-.09,1.25-.65,2.5-1.68,3.77-1.69,2.06-4.25,3.64-7.7,4.74-1.09,.35-1.94,.52-2.53,.5-.59-.02-1.14-.25-1.66-.67l-4.99-5.2-17.45-14.25c-1.15-.94-1.85-1.73-2.09-2.38-.37-.94-.24-1.79,.38-2.56,.38-.47,.77-.72,1.18-.76,.41-.04,1.21,.08,2.42,.37,1.32,.33,2.44,.19,3.37-.41,.77-.51,2.51-2.41,5.2-5.7,1.25-1.53,3.01-3.77,5.28-6.72,2.17-2.83,3.82-4.95,4.95-6.36,1.09-1.33,1.73-2.33,1.92-2.99,.19-.66,.04-1.37-.44-2.13-.79-1.28-1.23-2.16-1.34-2.64-.19-.85-.07-1.54,.36-2.08,.99-1.21,2.75-1.32,5.28-.3,2.16,.85,4.68,2.45,7.56,4.8,3.23,2.64,5.5,4.77,6.83,6.41,1.7,2.13,1.99,3.88,.89,5.22-.45,.55-.92,.84-1.41,.89-.49,.04-1.45-.15-2.89-.57-.86-.23-1.66-.08-2.38,.47s-2.02,1.97-3.9,4.26Z"/><path class="cls-7" d="M303.02,246.53c-.06,0-.12,0-.18,0-.92-.04-1.78-.38-2.55-1.01-.05-.04-.09-.08-.13-.12l-4.93-5.13-17.38-14.19c-1.39-1.13-2.19-2.09-2.55-3-.56-1.42-.34-2.87,.62-4.04,.64-.78,1.38-1.22,2.19-1.3,.43-.04,1.11-.03,2.92,.41,.91,.23,1.63,.16,2.21-.21,.28-.18,1.33-1.09,4.84-5.39,1.23-1.5,2.99-3.75,5.25-6.68,2.17-2.82,3.83-4.97,4.96-6.38,1.35-1.65,1.6-2.31,1.65-2.47,.07-.22-.02-.53-.26-.9-1.18-1.91-1.44-2.67-1.54-3.11-.37-1.65,.16-2.74,.67-3.36,1.45-1.77,3.8-2.03,7-.75,2.32,.91,4.92,2.56,7.95,5.03,3.34,2.73,5.65,4.9,7.05,6.63,2.73,3.44,1.99,5.77,.89,7.12-.72,.87-1.54,1.36-2.45,1.43-.47,.04-1.29,0-3.43-.62-.38-.1-.7-.04-1.05,.23-.35,.27-1.29,1.14-3.64,4.02l-9.36,11.46c-2.62,3.2-3.03,4.43-3.08,4.81-.12,.94,.94,2.03,1.85,2.78,1.63,1.33,3.18,2.03,4.62,2.08,1.4,.05,2.94-.53,4.52-1.72,2.37-1.83,4.2-.75,4.87-.2,1.26,1.03,1.86,2.49,1.74,4.22-.11,1.56-.79,3.11-2.02,4.61-1.87,2.28-4.69,4.04-8.41,5.22-1.18,.38-2.12,.57-2.87,.57Zm-.76-3.28c.31,.24,.55,.28,.71,.28,.23,.01,.8-.03,2-.42,3.16-1,5.51-2.44,7-4.26,.83-1.01,1.28-2,1.35-2.92,.07-.97-.31-1.41-.64-1.68-.18-.15-.4-.33-1.15,.26-2.17,1.63-4.33,2.4-6.45,2.33-2.1-.08-4.26-1-6.41-2.76-2.18-1.78-3.17-3.64-2.93-5.51,.13-.92,.66-2.55,3.73-6.3l9.36-11.46h0c2.62-3.21,3.63-4.11,4.16-4.51,1.09-.83,2.37-1.08,3.68-.72,1.84,.54,2.31,.52,2.37,.52,0,0,.13-.05,.38-.34,.22-.27,.89-1.08-.91-3.34-1.25-1.54-3.47-3.62-6.61-6.18-2.75-2.24-5.15-3.78-7.16-4.57-1.27-.51-2.92-.94-3.57-.14-.05,.06-.19,.23-.06,.8,.01,.04,.14,.52,1.16,2.18,.89,1.39,.82,2.58,.61,3.34-.25,.88-.95,1.99-2.2,3.52-1.11,1.39-2.76,3.52-4.92,6.33-2.28,2.96-4.06,5.23-5.3,6.75-3.71,4.54-4.91,5.59-5.54,6.01-1.3,.83-2.83,1.04-4.55,.61-1.29-.31-1.76-.34-1.88-.34h0s-.08,.07-.19,.22c-.28,.35-.32,.62-.15,1.06,.06,.15,.34,.69,1.65,1.77l17.45,14.25s.09,.08,.13,.12l4.92,5.13Z"/></g><g><path class="cls-6" d="M339.59,250.03l-8.22,6.28c-3.64,2.78-5.71,4.45-6.23,5.01-.51,.57-.65,1.34-.42,2.32,.21,.84,.28,1.46,.2,1.85-.08,.4-.34,.76-.78,1.1-.56,.43-1.23,.62-2,.57-.77-.05-1.5-.34-2.2-.86-1.31-.94-3.09-2.88-5.31-5.8-2.52-3.3-4.03-5.8-4.55-7.51-.25-.78-.29-1.55-.12-2.3,.17-.75,.51-1.32,1.02-1.71,.41-.31,.81-.45,1.19-.4,.38,.04,1,.31,1.86,.79,.8,.44,1.91,.25,3.32-.59,2.43-1.42,5.69-3.7,9.79-6.82,4.17-3.18,6.76-5.35,7.77-6.5,1.01-1.15,1.44-2.43,1.3-3.83-.14-1.03-.12-1.82,.04-2.36,.17-.55,.51-1.02,1.04-1.42,.84-.64,1.87-.79,3.11-.47,1.24,.33,2.79,1.17,4.66,2.52,1.26,.9,2.77,2.17,4.52,3.8,1.76,1.63,2.96,2.87,3.61,3.73,1.03,1.35,.71,2.66-.97,3.94-.55,.42-1.87,1.29-3.96,2.62-3.23,2.11-6.12,4.12-8.7,6.03Z"/><path class="cls-7" d="M322.39,268.68c-.11,0-.22,0-.33-.01-1.06-.07-2.07-.46-3-1.16-1.43-1.02-3.27-3.02-5.61-6.09-2.65-3.47-4.22-6.08-4.8-7.98-.32-1.02-.37-2.06-.14-3.07,.25-1.1,.78-1.97,1.58-2.58,.91-.69,1.74-.76,2.28-.7,.61,.07,1.36,.37,2.42,.97,.16,.09,.73,.07,1.82-.57,2.37-1.39,5.62-3.65,9.65-6.72,5.07-3.87,6.91-5.56,7.55-6.3,.74-.84,1.04-1.69,.93-2.68-.16-1.22-.13-2.2,.1-2.96,.26-.85,.78-1.58,1.57-2.18,.84-.64,2.28-1.29,4.4-.73,1.43,.38,3.12,1.28,5.16,2.76,1.3,.93,2.87,2.25,4.66,3.92,1.84,1.71,3.08,2.99,3.79,3.92,1.54,2.01,1.07,4.27-1.25,6.04-.59,.45-1.92,1.33-4.07,2.69-3.16,2.07-6.06,4.08-8.6,5.96l-8.22,6.27c-4.65,3.55-5.77,4.55-6.02,4.83-.06,.07-.24,.26-.07,.97,.27,1.07,.33,1.86,.21,2.49-.15,.77-.6,1.44-1.34,2.01-.77,.59-1.67,.89-2.67,.89Zm-10.35-18.59s-.06,.04-.14,.1c-.08,.06-.33,.26-.47,.85-.11,.49-.08,.99,.08,1.52,.33,1.07,1.33,3.14,4.32,7.05,2.65,3.47,4.18,4.9,5,5.49,.49,.37,.94,.55,1.42,.58,.41,.03,.72-.06,.99-.27,.17-.13,.22-.21,.22-.22h0s.03-.3-.19-1.18c-.45-1.86,.17-3.04,.76-3.69,.4-.44,1.49-1.43,6.43-5.2l8.22-6.28s.01,0,.02-.01c2.59-1.92,5.54-3.97,8.77-6.08,2.56-1.63,3.52-2.29,3.87-2.56,1.32-1.01,.99-1.43,.68-1.84-.6-.78-1.75-1.97-3.44-3.54-1.71-1.58-3.18-2.82-4.38-3.69-1.72-1.24-3.12-2.01-4.17-2.29-1.02-.27-1.53-.01-1.82,.21-.27,.21-.44,.43-.52,.67-.05,.15-.14,.63,0,1.73,.2,1.87-.36,3.54-1.66,5.02-1.09,1.24-3.7,3.43-7.99,6.7-4.13,3.15-7.47,5.48-9.94,6.93-1.9,1.12-3.51,1.33-4.81,.6-.81-.46-1.17-.58-1.28-.6Z"/></g><g><path class="cls-6" d="M361.37,275.42c1.56,3.4,2.02,6.67,1.38,9.82-.35,1.67-.99,3.03-1.95,4.07-.95,1.04-2.46,2.04-4.53,2.98l-4.39,1.94c-3.03,1.39-4.89,2.5-5.59,3.34-.33,.41-.51,.74-.54,.99-.03,.25,.05,.71,.24,1.38,.19,.67-.08,1.17-.8,1.5-.94,.43-2.09,.5-3.45,.22-1.36-.29-2.66-.87-3.89-1.75-1.53-1.07-2.66-2.41-3.4-4.01-.94-2.05-.98-3.99-.12-5.83,.32-.64,.4-1.14,.24-1.49-.18-.39-.66-.8-1.44-1.22-2.32-1.3-4.05-3.19-5.19-5.67-1.17-2.56-1.58-4.88-1.21-6.96,.25-1.37,.81-2.62,1.7-3.76,.88-1.14,1.96-2,3.23-2.58,2.03-.93,4.2-.93,6.52-.01,3.63,1.43,6.63,4.69,8.99,9.78,.52,1.13,.96,1.79,1.32,1.98,.36,.19,.95,.1,1.77-.28,2.07-.95,3.47-1.85,4.2-2.71,.73-.86,.87-1.77,.42-2.75-.27-.58-.68-1.03-1.25-1.33-.56-.3-1.47-.57-2.72-.83-3.28-.6-5.35-1.85-6.22-3.74-.44-.96-.51-1.87-.22-2.73,.29-.87,.89-1.51,1.81-1.93,.94-.43,2.05-.48,3.33-.16s2.57,.97,3.86,1.93c3.5,2.67,6.13,5.94,7.89,9.78Zm-17.86,5.81c-.39-.86-1.09-1.45-2.08-1.76-.99-.31-1.98-.25-2.96,.2-.94,.43-1.59,1-1.96,1.71-.37,.71-.39,1.44-.04,2.18,.72,1.56,2.39,1.74,5.03,.53,1.07-.49,1.75-.94,2.01-1.33,.27-.39,.27-.91,0-1.54Z"/><path class="cls-7" d="M343.28,303.33c-.58,0-1.19-.07-1.83-.2-1.56-.33-3.06-1-4.45-1.99-1.73-1.21-3.05-2.77-3.89-4.61-1.13-2.46-1.17-4.84-.12-7.09,.07-.14,.11-.24,.13-.31-.11-.09-.32-.24-.69-.44-2.62-1.46-4.57-3.6-5.84-6.37-1.3-2.83-1.74-5.47-1.32-7.85,.29-1.61,.96-3.09,1.99-4.42,1.03-1.33,2.31-2.34,3.79-3.02,2.41-1.11,5-1.12,7.7-.04,3.98,1.57,7.28,5.11,9.79,10.54,.28,.62,.49,.97,.62,1.16,.11-.03,.27-.09,.48-.19,2.32-1.06,3.28-1.85,3.69-2.32,.4-.47,.38-.76,.2-1.15-.13-.28-.32-.48-.58-.62-.24-.13-.87-.39-2.32-.68-3.74-.69-6.2-2.23-7.28-4.59-.6-1.31-.7-2.6-.28-3.83,.42-1.25,1.32-2.23,2.61-2.82,1.25-.57,2.71-.66,4.32-.25,1.47,.37,2.95,1.11,4.4,2.19,3.69,2.82,6.5,6.3,8.36,10.36h0c1.69,3.68,2.19,7.29,1.49,10.74-.4,1.94-1.18,3.55-2.31,4.78-1.1,1.2-2.74,2.29-5.01,3.33l-4.41,1.95c-3.8,1.74-4.8,2.63-5.05,2.93-.09,.12-.15,.2-.18,.26,.02,.11,.07,.34,.18,.75,.39,1.38-.23,2.64-1.62,3.27-.76,.35-1.61,.52-2.54,.52Zm-8.44-34.13c-.88,0-1.72,.19-2.54,.56-1.06,.48-1.93,1.18-2.67,2.14-.74,.95-1.2,1.97-1.41,3.1-.31,1.76,.06,3.8,1.1,6.07,1.01,2.2,2.5,3.83,4.56,4.99,1.08,.58,1.75,1.19,2.07,1.9,.36,.78,.27,1.72-.26,2.79-.65,1.4-.61,2.89,.14,4.54,.63,1.37,1.57,2.48,2.89,3.41,1.07,.76,2.18,1.26,3.33,1.51,.99,.21,1.8,.18,2.43-.08-.21-.78-.27-1.3-.22-1.72,.06-.54,.33-1.11,.86-1.76,.56-.67,1.79-1.77,6.14-3.77l4.41-1.95c1.86-.85,3.22-1.74,4.04-2.63,.76-.83,1.29-1.96,1.58-3.36,.57-2.81,.14-5.81-1.28-8.89h0c-1.65-3.61-4.16-6.71-7.44-9.22-1.12-.83-2.24-1.4-3.32-1.67-.95-.24-1.72-.21-2.34,.07-.54,.25-.86,.57-1.01,1.04-.17,.5-.12,1.02,.17,1.63,.65,1.41,2.37,2.39,5.13,2.89,1.43,.29,2.46,.61,3.15,.98,.86,.45,1.5,1.13,1.91,2.02,.69,1.51,.46,3.05-.65,4.35-.88,1.03-2.43,2.04-4.72,3.1-.82,.38-2.03,.81-3.1,.24-.7-.37-1.27-1.15-1.98-2.68-2.18-4.7-4.93-7.73-8.17-9.01-.98-.39-1.91-.59-2.8-.59Zm9.85,30.82h0Zm-6.09-13.62c-.17,0-.33,0-.49-.03-1.36-.14-2.42-.91-3-2.17-.54-1.16-.51-2.38,.08-3.5,.52-1.01,1.42-1.82,2.67-2.39,1.32-.61,2.67-.7,4.03-.27,1.39,.44,2.43,1.32,3,2.56,0,.01,.01,.03,.02,.04,.59,1.41,.25,2.39-.14,2.97-.44,.65-1.25,1.22-2.63,1.85-1.36,.62-2.52,.93-3.53,.93Zm1.61-5.62c-.37,0-.73,.09-1.11,.26-.62,.29-1.04,.64-1.25,1.04-.16,.3-.16,.55-.01,.87,.15,.33,.32,.41,.59,.44,.32,.03,1.06,0,2.45-.65,.81-.37,1.17-.63,1.32-.75-.01-.04-.03-.09-.05-.16-.22-.46-.58-.75-1.16-.93-.26-.08-.52-.12-.78-.12Z"/></g><g><path class="cls-6" d="M375.34,320.11c.1,1.22-.71,1.9-2.45,2.05-.02,0-.2,.02-.55,.05-.34,0-.62,.02-.84,.04-1.16,.1-1.71,.49-1.65,1.17,.03,.36,.54,.89,1.52,1.59,1.42,1.04,2.6,2.41,3.53,4.1,.93,1.69,1.47,3.46,1.62,5.3,.3,3.58-.8,6.17-3.29,7.78-.92,.62-1.36,1.1-1.33,1.44,.02,.24,.5,.76,1.42,1.56,2.95,2.55,4.58,5.6,4.88,9.13,.23,2.76-.34,5.08-1.71,6.97-1.43,1.97-3.73,3.09-6.9,3.36-.69,.06-1.84,.13-3.47,.23-.56,0-2.24,.12-5.05,.36-1.8,.15-3.06,.25-3.79,.29-.45,.02-.77,.03-.97,.05-1.37,.12-2.53,.64-3.49,1.59-.58,.57-.96,.92-1.16,1.05-.19,.13-.46,.22-.8,.25-2.74,.23-4.38-2.88-4.92-9.32-.24-2.85-.09-5.17,.45-6.97s1.36-2.75,2.48-2.84c.43-.04,.76,0,.99,.09,.23,.1,.86,.46,1.89,1.09,.93,.59,3.88,.68,8.85,.26,2.89-.24,4.88-.62,5.99-1.12,1.31-.58,1.9-1.58,1.79-3-.06-.71-.33-1.31-.82-1.82-.49-.51-1.07-.82-1.74-.94-.79-.13-2.85-.06-6.19,.2-3.59,.37-5.77,.66-6.52,.89-.76,.22-1.78,.86-3.08,1.89-.3,.24-.7,.38-1.19,.42-2.55,.21-4.1-3.01-4.66-9.67-.34-4-.26-6.73,.22-8.17,.38-1.15,1.17-1.78,2.36-1.88,.54-.04,.92,0,1.14,.11,.23,.12,.76,.56,1.6,1.3,.49,.43,.94,.7,1.35,.81,.41,.11,1.14,.15,2.19,.12,2.37-.05,4.75-.17,7.15-.37,4.2-.35,6.2-1.6,6.02-3.74-.13-1.61-1.11-2.48-2.94-2.63-1.71-.12-4.14-.04-7.29,.22-2.36,.2-3.89,.38-4.61,.53s-1.46,.48-2.21,.98c-.88,.59-1.61,.91-2.18,.96-1.39,.12-2.44-.78-3.14-2.68-.76-2.07-1.24-4.38-1.46-6.93-.28-3.3-.22-5.74,.18-7.32,.4-1.59,1.16-2.43,2.29-2.52,.43-.04,.8,.04,1.12,.21,.32,.18,.83,.6,1.53,1.28,.96,.89,2.21,1.34,3.77,1.37,2.67,.01,5.43-.1,8.28-.34,2.03-.17,3.44-.39,4.23-.66,.79-.27,1.4-.76,1.83-1.46,.44-.68,.78-1.13,1.02-1.33,.24-.2,.59-.32,1.04-.36,1.43-.12,2.66,.91,3.69,3.09,2.4,5.25,3.73,9.23,3.98,11.92Z"/><path class="cls-7" d="M350.59,369.96c-1.35,0-3.06-.57-4.33-2.97-.92-1.75-1.51-4.28-1.81-7.74-.25-3.02-.08-5.55,.51-7.53,.51-1.72,1.26-2.71,2.04-3.27-.91-.4-1.84-1.22-2.59-2.79-.87-1.79-1.43-4.39-1.73-7.94-.36-4.25-.26-7.12,.29-8.77,.32-.98,.88-1.73,1.63-2.23-.8-.52-1.59-1.45-2.18-3.04-.8-2.19-1.32-4.65-1.54-7.32-.29-3.49-.22-6.05,.22-7.81,.74-2.98,2.59-3.57,3.62-3.65,.73-.06,1.4,.07,1.98,.4,.44,.25,1.01,.71,1.83,1.5,.67,.62,1.57,.93,2.75,.95,2.61,.01,5.35-.1,8.14-.33,2.37-.2,3.41-.43,3.87-.59,.46-.16,.79-.42,1.05-.84,.55-.86,.96-1.38,1.33-1.69,.49-.41,1.12-.65,1.88-.71,1.46-.12,3.53,.46,5.17,3.94,2.5,5.47,3.85,9.53,4.11,12.42,0,0,0,0,0,.01,.07,.78-.02,3.35-3.82,3.67l-.46,.04s-.16,.01-.19,.01c-.08,0-.15,0-.22,0,.03,.02,.06,.04,.09,.07,1.62,1.19,2.95,2.73,3.98,4.6,1.03,1.87,1.63,3.85,1.81,5.9,.35,4.15-.99,7.24-3.97,9.16-.09,.06-.17,.11-.24,.16,.13,.12,.3,.27,.5,.44,3.25,2.81,5.06,6.22,5.39,10.14,.26,3.12-.41,5.8-1.99,7.98-1.69,2.33-4.38,3.67-7.99,3.97-.69,.06-1.86,.13-3.51,.23-.43,0-1.57,.07-5.01,.36-1.82,.15-3.1,.25-3.83,.29-.45,.02-.75,.03-.93,.05-1.01,.08-1.85,.46-2.56,1.16-.84,.83-1.15,1.08-1.35,1.21-.42,.29-.94,.46-1.54,.51-.13,.01-.27,.02-.41,.02Zm-1.35-19.17s-.13,0-.24,.01c-.59,.05-1.01,1.26-1.17,1.78-.48,1.62-.61,3.78-.39,6.42,.25,3.01,.75,5.22,1.47,6.59,.77,1.45,1.51,1.4,1.83,1.36,.08,0,.12-.02,.14-.02,0-.01,.24-.21,.9-.85,1.21-1.19,2.69-1.87,4.41-2.01,.21-.02,.55-.04,1.04-.05,.69-.04,1.94-.13,3.72-.28,3.83-.32,4.78-.36,5.16-.36,1.54-.09,2.68-.17,3.36-.22,2.74-.23,4.64-1.13,5.81-2.75,1.17-1.6,1.63-3.55,1.43-5.96-.26-3.15-1.69-5.81-4.36-8.12-1.41-1.22-1.88-1.84-1.94-2.57-.1-1.23,.95-2.11,2-2.81,2.03-1.31,2.88-3.4,2.63-6.41-.14-1.62-.62-3.2-1.44-4.7-.82-1.49-1.86-2.71-3.1-3.62-1.43-1.01-2.06-1.78-2.13-2.67-.07-.87,.29-1.66,.99-2.16,.5-.36,1.16-.57,2.02-.64,.23-.02,.55-.04,.93-.04,.32-.03,.49-.04,.51-.04,.75-.06,.99-.25,1.02-.28,0,0,0-.05,0-.14-.23-2.52-1.53-6.36-3.85-11.43-.49-1.05-1.28-2.32-2.2-2.21-.16,.01-.23,.04-.24,.04h0s-.19,.2-.68,.96c-.61,.98-1.49,1.69-2.61,2.07-.91,.32-2.42,.56-4.59,.74-2.88,.24-5.72,.36-8.42,.34-1.94-.03-3.55-.62-4.78-1.77-.91-.87-1.21-1.05-1.24-1.07-.06-.04-.19-.03-.26-.03-.17,.01-.63,.05-.97,1.39-.35,1.42-.4,3.72-.14,6.83,.2,2.4,.66,4.6,1.37,6.54,.65,1.77,1.34,1.72,1.6,1.7,.11,0,.55-.09,1.47-.71,.92-.6,1.83-1,2.73-1.2,.79-.17,2.36-.36,4.81-.56,3.25-.27,5.71-.35,7.52-.23,2.56,.21,4.14,1.67,4.33,4,.18,2.15-.96,4.82-7.39,5.36-2.41,.2-4.84,.33-7.24,.38-1.22,.02-2.05-.03-2.6-.17-.65-.17-1.29-.54-1.96-1.14-.75-.67-1.1-.95-1.25-1.06-.07,0-.19,0-.37,.01-.6,.05-.87,.27-1.06,.85-.29,.86-.55,2.87-.15,7.58,.26,3.13,.75,5.45,1.44,6.88,.72,1.49,1.36,1.43,1.6,1.41,.21-.02,.34-.06,.39-.1,1.45-1.17,2.63-1.87,3.58-2.16,.54-.16,1.84-.44,6.8-.94,4.68-.37,6-.28,6.58-.19,1.01,.17,1.88,.64,2.59,1.38,.73,.76,1.14,1.68,1.23,2.73,.17,2.05-.78,3.65-2.67,4.49-1.26,.58-3.38,.98-6.47,1.24-7,.59-8.88,.08-9.78-.49-1.22-.75-1.58-.93-1.66-.97,0,0-.02,0-.06,0Zm1.52-2.62c.29,.15,.8,.44,1.78,1.04,.2,.11,1.47,.59,7.94,.04,3.37-.28,4.84-.69,5.49-.99,.74-.33,.98-.72,.91-1.51-.03-.36-.16-.65-.41-.91-.26-.27-.55-.43-.91-.49-.29-.05-1.47-.12-5.83,.21-4.53,.46-5.84,.72-6.21,.83-.32,.09-1.08,.43-2.56,1.62-.07,.05-.13,.1-.2,.15Zm22.52-4.1h0Zm-24.18-17.38c.29,.22,.72,.57,1.39,1.17,.43,.38,.66,.46,.73,.48,.09,.02,.51,.11,1.78,.07,2.34-.05,4.71-.17,7.06-.37,1.79-.15,4.78-.63,4.65-2.12-.05-.63-.21-1.15-1.56-1.26-1.61-.11-3.98-.03-7.04,.22-2.84,.24-3.97,.41-4.42,.5-.54,.12-1.11,.38-1.71,.77-.3,.2-.59,.38-.87,.53Z"/></g><g><path class="cls-6" d="M371.19,398.11c-.96,3.61-2.68,6.43-5.18,8.46-1.33,1.07-2.69,1.7-4.09,1.9-1.4,.2-3.2,0-5.4-.58l-4.62-1.29c-3.22-.85-5.37-1.18-6.44-.98-.52,.11-.87,.25-1.05,.42s-.41,.58-.69,1.22c-.28,.64-.8,.85-1.57,.65-1-.26-1.93-.94-2.8-2.03-.87-1.09-1.5-2.36-1.89-3.82-.5-1.8-.53-3.55-.07-5.25,.58-2.18,1.78-3.71,3.61-4.58,.66-.29,1.03-.63,1.13-1,.11-.42,0-1.04-.34-1.86-.96-2.48-1.1-5.04-.4-7.67,.72-2.72,1.89-4.77,3.5-6.14,1.06-.9,2.29-1.5,3.7-1.82,1.41-.32,2.78-.3,4.13,.06,2.16,.57,3.84,1.95,5.04,4.14,1.89,3.41,2.13,7.83,.72,13.26-.32,1.2-.4,1.99-.25,2.37,.16,.37,.67,.68,1.54,.91,2.2,.58,3.86,.78,4.96,.58s1.8-.81,2.07-1.85c.17-.62,.13-1.23-.12-1.82-.24-.59-.77-1.38-1.57-2.37-2.15-2.55-2.95-4.83-2.42-6.84,.27-1.02,.79-1.77,1.56-2.25,.77-.48,1.65-.6,2.62-.34,1,.26,1.89,.93,2.67,1.99,.79,1.06,1.37,2.38,1.75,3.95,1,4.29,.95,8.48-.13,12.57Zm-17.48-6.87c.24-.91,.08-1.81-.49-2.68-.57-.87-1.37-1.45-2.41-1.72-1-.26-1.87-.24-2.6,.08-.74,.31-1.21,.87-1.42,1.66-.44,1.66,.74,2.86,3.54,3.61,1.14,.3,1.94,.39,2.4,.25,.46-.13,.79-.53,.98-1.19Z"/><path class="cls-7" d="M360.78,410.04c-1.33,0-2.86-.23-4.64-.71l-4.64-1.3c-4.04-1.07-5.38-1.02-5.76-.95-.14,.03-.24,.06-.3,.08-.05,.09-.17,.3-.34,.69-.58,1.31-1.85,1.89-3.33,1.5-1.31-.35-2.51-1.2-3.58-2.54-.99-1.24-1.72-2.71-2.17-4.37-.57-2.04-.59-4.07-.07-6.03,.69-2.62,2.18-4.48,4.42-5.55,.14-.06,.23-.11,.3-.15-.03-.14-.09-.39-.25-.78-1.09-2.79-1.24-5.69-.46-8.63,.8-3.01,2.13-5.33,3.97-6.9,1.25-1.05,2.71-1.77,4.35-2.14,1.64-.37,3.27-.34,4.85,.08,2.56,.68,4.57,2.32,5.97,4.87,2.08,3.74,2.36,8.57,.85,14.36-.17,.66-.24,1.06-.26,1.29,.11,.04,.27,.1,.49,.16,2.46,.65,3.71,.66,4.32,.55,.6-.11,.78-.35,.88-.76,.08-.3,.06-.57-.05-.85-.11-.26-.42-.85-1.35-2-2.45-2.91-3.37-5.67-2.71-8.17,.37-1.4,1.12-2.45,2.22-3.14,1.12-.7,2.43-.88,3.8-.52,1.33,.35,2.51,1.21,3.5,2.55,.9,1.22,1.57,2.72,2,4.48,1.05,4.53,1,9-.14,13.31h0c-1.04,3.91-2.95,7.02-5.68,9.24-1.54,1.24-3.16,1.99-4.83,2.22-.43,.06-.88,.09-1.35,.09Zm-14.59-5.98c1.07,0,2.85,.22,6.09,1.08l4.64,1.3c1.98,.52,3.59,.71,4.78,.54,1.12-.16,2.25-.69,3.36-1.58,2.23-1.81,3.8-4.4,4.67-7.68h0c1.02-3.83,1.06-7.82,.12-11.84-.33-1.35-.84-2.5-1.5-3.4-.57-.78-1.19-1.26-1.85-1.43-.58-.15-1.02-.1-1.44,.16-.45,.28-.74,.71-.91,1.37-.4,1.5,.31,3.35,2.12,5.49,.92,1.14,1.51,2.03,1.81,2.76,.37,.89,.43,1.83,.18,2.77-.42,1.6-1.58,2.65-3.26,2.94-1.34,.24-3.17,.04-5.61-.61-.5-.13-2.02-.54-2.54-1.78-.31-.73-.25-1.7,.18-3.33,1.31-5.01,1.11-9.1-.58-12.15-1.01-1.83-2.35-2.95-4.11-3.41-1.12-.3-2.24-.31-3.42-.05-1.18,.26-2.18,.76-3.06,1.5-1.36,1.16-2.38,2.97-3.02,5.38-.62,2.34-.51,4.55,.35,6.75,.47,1.14,.59,2.03,.39,2.79-.22,.83-.88,1.5-1.97,1.98-1.39,.66-2.31,1.84-2.78,3.59-.39,1.45-.36,2.91,.07,4.47,.34,1.26,.88,2.36,1.62,3.28,.63,.79,1.28,1.29,1.92,1.49,.34-.73,.61-1.17,.92-1.47,.4-.39,.96-.65,1.79-.82,.26-.05,.58-.09,1.04-.09Zm-3.53,2.42h0Zm9.54-12.5c-.61,0-1.34-.12-2.26-.37-1.68-.45-2.88-1.05-3.67-1.86-.96-.97-1.29-2.25-.94-3.58,.33-1.24,1.12-2.16,2.29-2.65,1.04-.45,2.25-.5,3.58-.15,1.41,.37,2.51,1.17,3.28,2.36,.8,1.22,1.03,2.56,.68,3.88,0,.01,0,.03-.01,.04-.44,1.46-1.33,2-2,2.2-.28,.08-.59,.12-.94,.12Zm1.5-2.75h0Zm-1.55-.16h0Zm-2.63-2.92c-.28,0-.52,.04-.73,.14-.31,.13-.47,.32-.56,.66-.09,.35-.01,.52,.18,.71,.22,.23,.82,.67,2.3,1.06,.86,.23,1.3,.27,1.49,.27,.02-.04,.04-.09,.06-.16,.13-.49,.03-.94-.3-1.45-.37-.57-.86-.91-1.54-1.09-.33-.09-.63-.13-.9-.13Z"/></g></g></svg>